<?xml version="1.0" encoding="UTF-8" standalone="no"?>
<svg
   xmlns:osb="http://www.openswatchbook.org/uri/2009/osb"
   xmlns:dc="http://purl.org/dc/elements/1.1/"
   xmlns:cc="http://creativecommons.org/ns#"
   xmlns:rdf="http://www.w3.org/1999/02/22-rdf-syntax-ns#"
   xmlns:svg="http://www.w3.org/2000/svg"
   xmlns="http://www.w3.org/2000/svg"
   xmlns:xlink="http://www.w3.org/1999/xlink"
   xmlns:sodipodi="http://sodipodi.sourceforge.net/DTD/sodipodi-0.dtd"
   xmlns:inkscape="http://www.inkscape.org/namespaces/inkscape"
   width="841mm"
   height="594mm"
   viewBox="0 0 841 594"
   version="1.1"
   id="svg8"
   inkscape:version="1.0.1 (3bc2e813f5, 2020-09-07)"
   sodipodi:docname="tampaksamping.svg"
   inkscape:export-filename="D:\pitut\design jembatan\tampak samping.png"
   inkscape:export-xdpi="96"
   inkscape:export-ydpi="96">
  <defs
     id="defs2">
    <linearGradient
       inkscape:collect="always"
       id="linearGradient4863">
      <stop
         style="stop-color:#000000;stop-opacity:1;"
         offset="0"
         id="stop4859" />
      <stop
         style="stop-color:#000000;stop-opacity:0;"
         offset="1"
         id="stop4861" />
    </linearGradient>
    <linearGradient
       id="linearGradient4837"
       osb:paint="solid">
      <stop
         style="stop-color:#000000;stop-opacity:1;"
         offset="0"
         id="stop4835" />
    </linearGradient>
    <linearGradient
       id="linearGradient2698"
       osb:paint="solid">
      <stop
         style="stop-color:#e6e6e6;stop-opacity:1;"
         offset="0"
         id="stop2696" />
    </linearGradient>
    <inkscape:path-effect
       effect="bspline"
       id="path-effect1331"
       is_visible="true"
       lpeversion="1"
       weight="33.333333"
       steps="2"
       helper_size="0"
       apply_no_weight="true"
       apply_with_weight="true"
       only_selected="false" />
    <inkscape:path-effect
       effect="bspline"
       id="path-effect1307"
       is_visible="true"
       lpeversion="1"
       weight="33.333333"
       steps="2"
       helper_size="0"
       apply_no_weight="true"
       apply_with_weight="true"
       only_selected="false" />
    <inkscape:path-effect
       effect="bspline"
       id="path-effect931"
       is_visible="true"
       lpeversion="1"
       weight="33.333333"
       steps="2"
       helper_size="0"
       apply_no_weight="true"
       apply_with_weight="true"
       only_selected="false" />
    <inkscape:path-effect
       effect="bspline"
       id="path-effect908"
       is_visible="true"
       lpeversion="1"
       weight="33.333333"
       steps="2"
       helper_size="0"
       apply_no_weight="true"
       apply_with_weight="true"
       only_selected="false" />
    <inkscape:path-effect
       effect="bspline"
       id="path-effect880"
       is_visible="true"
       lpeversion="1"
       weight="33.333333"
       steps="2"
       helper_size="0"
       apply_no_weight="true"
       apply_with_weight="true"
       only_selected="false" />
    <inkscape:path-effect
       effect="bspline"
       id="path-effect872"
       is_visible="true"
       lpeversion="1"
       weight="33.333333"
       steps="2"
       helper_size="0"
       apply_no_weight="true"
       apply_with_weight="true"
       only_selected="false" />
    <inkscape:path-effect
       effect="bspline"
       id="path-effect868"
       is_visible="true"
       lpeversion="1"
       weight="33.333333"
       steps="2"
       helper_size="0"
       apply_no_weight="true"
       apply_with_weight="true"
       only_selected="false" />
    <inkscape:path-effect
       effect="bspline"
       id="path-effect864"
       is_visible="true"
       lpeversion="1"
       weight="33.333333"
       steps="2"
       helper_size="0"
       apply_no_weight="true"
       apply_with_weight="true"
       only_selected="false" />
    <linearGradient
       inkscape:collect="always"
       xlink:href="#linearGradient4863"
       id="linearGradient4865"
       x1="0"
       y1="0"
       x2="1"
       y2="0"
       gradientUnits="userSpaceOnUse" />
  </defs>
  <sodipodi:namedview
     id="base"
     pagecolor="#ffffff"
     bordercolor="#666666"
     borderopacity="1.0"
     inkscape:pageopacity="0.0"
     inkscape:pageshadow="2"
     inkscape:zoom="0.25"
     inkscape:cx="1138.3189"
     inkscape:cy="1071.2474"
     inkscape:document-units="mm"
     inkscape:current-layer="layer12"
     inkscape:document-rotation="0"
     showgrid="false"
     units="mm"
     inkscape:window-width="1366"
     inkscape:window-height="705"
     inkscape:window-x="-8"
     inkscape:window-y="-8"
     inkscape:window-maximized="1"
     showguides="false"
     inkscape:showpageshadow="false" />
  <metadata
     id="metadata5">
    <rdf:RDF>
      <cc:Work
         rdf:about="">
        <dc:format>image/svg+xml</dc:format>
        <dc:type
           rdf:resource="http://purl.org/dc/dcmitype/StillImage" />
        <dc:title></dc:title>
      </cc:Work>
    </rdf:RDF>
  </metadata>
  <g
     inkscape:groupmode="layer"
     id="layer17"
     inkscape:label="background"
     style="display:inline">
    <rect
       style="fill:#ffffff;fill-opacity:0;stroke:#000000;stroke-width:0.288999;stroke-miterlimit:4;stroke-dasharray:none;stroke-dashoffset:0"
       id="rect5786"
       width="872.58148"
       height="625.62451"
       x="-14.967093"
       y="-14.967093" />
  </g>
  <g
     inkscape:groupmode="layer"
     id="layer12"
     inkscape:label="warna aspal"
     style="display:inline">
    <path
       style="fill:#e6e6e6;fill-opacity:0.992157;stroke:#000000;stroke-width:0;stroke-miterlimit:4;stroke-dasharray:none;stroke-dashoffset:0"
       d="M -1.5799806,1952.8064 C -1.8225424,1863.193 -1.6224257,1783.8448 -0.36673194,1782.5891 4.5283463,1777.694 753.62125,1508.7381 758.2296,1510.2394 c 6.708,2.1854 -93.62377,124.506 -160.9376,199.5157 -153.69652,171.2685 -336.31781,309.3963 -529.307576,384.6304 l -69.1040454,28.4985 z"
       id="path2676"
       transform="scale(0.26458333)"
       sodipodi:nodetypes="ssssscs" />
    <path
       style="fill:#e6e6e6;fill-opacity:1;stroke:#000000;stroke-width:0;stroke-miterlimit:4;stroke-dasharray:none;stroke-dashoffset:0"
       d="m -1.1679166,2186.6686 0.071172,-38.3843 50.2145426,-20.8896 c 105.513192,-43.8942 255.199532,-128.9392 367.071682,-218.0001 102.14085,-81.314 259.82741,-256.8922 344.80977,-375.396 l 23.97258,-33.4286 266.62337,-94.2857 c 144.6891,-51.1662 280.2811,-101.1171 284.7517,-102.1333 6.8725,-1.5621 4.1283,29.8935 4.1283,159.8195 v 153.6671 l -620,283.2896 C 384.85681,2054.2775 86.689424,2191.2048 57.618054,2204.6347 l -59.2211036,27.9536 z"
       id="path2680"
       sodipodi:nodetypes="ccssscssscsscc"
       transform="scale(0.26458333)" />
    <path
       style="fill:#e6e6e6;fill-opacity:0.992157;stroke:#000000;stroke-width:0;stroke-miterlimit:4;stroke-dasharray:none;stroke-dashoffset:0"
       d="m 1427.3323,1424.2719 -2,-152.0125 23.7143,-11.619 c 8.2426,-4.0385 274.9271,-98.485 591.7427,-211.9876 412.8008,-147.89047 542.3694,-204.86851 559.6706,-204.86851 95.997,0 396.4583,-52.30359 526.1141,-96.40238 22.1038,-7.51797 50.4726,-15.66905 53.2641,-15.66905 2.7915,0 2.2697,29.82556 1.2849,39.39012 -1.7783,17.27016 -13.7712,10.12793 -874.7723,404.28572 -476.8399,218.2926 -868.3399,402.8956 -880,402.8956 -1.6601,0 -2.2291,-72.6689 0.9816,-154.0124 z"
       id="path2682"
       transform="scale(0.26458333)"
       sodipodi:nodetypes="scsssssssss" />
    <path
       style="fill:#e6e6e6;fill-opacity:0.992157;stroke:#000000;stroke-width:0;stroke-miterlimit:4;stroke-dasharray:none;stroke-dashoffset:0"
       d="m 2938.1895,728.28308 c 130.4286,-47.15528 239.7857,-85.7958 240.5714,-85.86782 0.7857,-0.072 2.4095,20.9158 1.4286,39.24802 l 0,41.37898 -44.5714,15.93934 c -129.2961,46.23806 -406.5402,88.63434 -499.4286,97.49518 -32.4911,3.09941 94.5568,-33.1945 302,-108.1937 z"
       id="path2684"
       transform="scale(0.26458333)"
       sodipodi:nodetypes="ssscsss" />
    <path
       style="fill:#b3b3b3;fill-opacity:1;stroke:#000000;stroke-width:0;stroke-miterlimit:4;stroke-dasharray:none;stroke-dashoffset:0"
       d="M -1.7846639,1760.144 -2.557312,1741.3943 399.34127,1601.206 c 213.49572,-74.4705 392.52842,-139.6422 393.2982,-138.9748 0.76982,0.6674 -12.12328,17.2408 -18.87357,27.0519 -9.84498,14.3093 -6.9169,17.5149 -25.74481,24.3117 -12.90939,4.6603 -126.56708,46.2369 -235.46152,85.0591 -108.89444,38.8222 -261.62951,93.6764 -339.41125,121.8981 -77.78175,28.2218 -181.318933,66.9947 -174.7908482,60.827 l 0.6305125,-2.4853 z"
       id="path4666"
       sodipodi:nodetypes="ccssssssscc"
       transform="scale(0.26458333)" />
    <path
       style="fill:#b3b3b3;fill-opacity:1;stroke:#000000;stroke-width:0;stroke-miterlimit:4;stroke-dasharray:none;stroke-dashoffset:0"
       d="m -15.675781,2238.4327 c 0.02458,-2.778 314.909901,-144.9992 678.792771,-311.5075 363.88291,-166.5083 671.07561,-307.5067 672.87281,-308.4409 1.7972,-0.9342 1.7849,15.046 0.02,25.4534 l 0.7527,19.152 -629.42984,292.3397 -619.429885,288.3397 H 41.662727 c -29.522371,0 -57.371297,-1.631 -57.338508,-5.3364 z"
       id="path4668"
       transform="scale(0.26458333)"
       sodipodi:nodetypes="sssscccss" />
    <path
       style="fill:#b3b3b3;fill-opacity:1;stroke:#000000;stroke-width:0;stroke-miterlimit:4;stroke-dasharray:none;stroke-dashoffset:0"
       d=""
       id="path4670"
       transform="scale(0.26458333)" />
    <path
       style="fill:#b3b3b3;fill-opacity:1;stroke:#000000;stroke-width:0;stroke-miterlimit:4;stroke-dasharray:none;stroke-dashoffset:0"
       d="m 796.44726,1475.2786 20.69065,-21.6852 115.28571,-40.2895 c 199.80868,-69.8282 400.88528,-142.2167 401.57128,-141.5308 0.3723,0.3724 3.8202,10.4312 3.0528,17.3771 l -1.6241,14.7 -273.4285,97.5333 c -149.41031,53.2954 -273.61084,97.5439 -273.83355,97.5568 -0.22272,0.013 -1.65905,-13.2389 8.28571,-23.6617 z"
       id="path4672"
       transform="scale(0.26458333)"
       sodipodi:nodetypes="scssscsss" />
    <path
       style="fill:#b3b3b3;fill-opacity:1;stroke:#000000;stroke-width:0;stroke-miterlimit:4;stroke-dasharray:none;stroke-dashoffset:0"
       d=""
       id="path4674"
       transform="scale(0.26458333)" />
    <path
       style="fill:#b3b3b3;fill-opacity:1;stroke:#000000;stroke-width:0;stroke-miterlimit:4;stroke-dasharray:none;stroke-dashoffset:0"
       d="m 1430.6166,1592.3325 -1.5935,-14.5267 18.4286,-9.0079 c 29.0661,-14.2075 120.8801,-54.3492 319.2857,-145.9576 211.9296,-97.8528 891.4361,-408.0194 893.1069,-408.0194 0.563,0 -8.1664,9.2138 -8.3987,14.3639 l -0.4225,9.3639 -605.7142,284.1445 c -332.7212,156.0817 -607.8258,281.0494 -610.4066,282.1553 l -4.6922,4.0108 z"
       id="path4676"
       transform="scale(0.26458333)"
       sodipodi:nodetypes="ccsssscsscc" />
    <path
       style="fill:#b3b3b3;fill-opacity:1;stroke:#000000;stroke-width:0;stroke-miterlimit:4;stroke-dasharray:none;stroke-dashoffset:0"
       d="m 1430.6124,1253.7606 -3.5893,-13.2031 561.8572,-194.5047 557.8571,-196.50465 26.2857,-3.02935 c 13.2813,-1.53063 54.2143,-6.69333 53.8215,-6.28263 -1.1074,1.15769 -904.6852,324.99013 -1043.6786,373.97203 -67.9643,23.9509 -129.5119,46.069 -136.7726,49.1513 -7.2606,3.0824 -13.874,5.6043 -14.6964,5.6043 -0.9632,0 -1.3492,-6.6988 -1.0846,-15.2032 z"
       id="path4678"
       sodipodi:nodetypes="scccssssss"
       transform="scale(0.26458333)" />
    <path
       style="fill:#b3b3b3;fill-opacity:1;stroke:#000000;stroke-width:0;stroke-miterlimit:4;stroke-dasharray:none;stroke-dashoffset:0"
       d=""
       id="path4680"
       transform="scale(0.26458333)" />
    <path
       style="fill:#b3b3b3;fill-opacity:1;stroke:#000000;stroke-width:0;stroke-miterlimit:4;stroke-dasharray:none;stroke-dashoffset:0"
       d="m 2643.8593,1028.5325 8,-9.7562 85.3571,-40.72387 c 46.5276,-22.19832 146.0152,-67.385 218.3009,-99.94598 168.791,-76.03162 171.7569,-75.85441 199.5332,-89.9403 12.8702,-6.52672 25.1666,-11.84646 25.4981,-11.84646 0.3316,0 0.4086,5.3021 0.1711,9.33797 l -0.4318,7.33796 -257.7143,121.03089 c -140.4192,65.94537 -259.0893,118.65789 -263.2143,120.64649 l -7.5,3.6156 z"
       id="path4682"
       transform="scale(0.26458333)"
       sodipodi:nodetypes="ccssssscsscc" />
    <path
       style="fill:#b3b3b3;fill-opacity:1;stroke:#000000;stroke-width:0;stroke-miterlimit:4;stroke-dasharray:none;stroke-dashoffset:0"
       d="m 2607.9111,830.12092 c 1.1785,-0.42556 125.5714,-45.7901 276.4285,-98.36565 150.8572,-52.57556 278.3572,-98.20945 283.9286,-99.05447 l 11.6429,-3.46254 -0.01,7.32643 -0.01,7.32643 -206.6325,73.21955 c -112.6711,39.92465 -225.0535,80.24615 -250.0124,88.83422 -24.9588,8.58807 -85.0088,27.27611 -89.4444,29.30677 -6.3643,2.9137 18.2945,-6.02953 4.6656,-4.98746 -27.7261,2.11996 -47.8494,6.68492 -45.5556,5.85672 z"
       id="path4684"
       transform="scale(0.26458333)"
       sodipodi:nodetypes="csscccsssscc" />
    <path
       style="fill:#b3b3b3;fill-opacity:1;stroke:#000000;stroke-width:0;stroke-miterlimit:4;stroke-dasharray:none;stroke-dashoffset:0"
       d="m 2575.0539,841.8185 c 9.8215,-3.60873 27.0715,-9.11102 31,-9.78287 8.6167,-1.47359 45.4585,-5.43634 44.3798,-4.34366 -0.4198,0.42516 -13.7412,7.98501 -24.7143,11.91079 l -19.9512,7.13779 -24.2857,0.81964 -24.2857,0.81964 z"
       id="path4686"
       transform="scale(0.26458333)"
       sodipodi:nodetypes="sssscccs" />
  </g>
  <g
     inkscape:groupmode="layer"
     id="layer15"
     inkscape:label="garis kanan">
    <path
       style="fill:#c6e9af;stroke:#000000;stroke-width:0.203899;stroke-linecap:butt;stroke-linejoin:miter;stroke-miterlimit:4;stroke-dasharray:none;stroke-opacity:1"
       d="m 465.86148,169.25686 v 132"
       id="path4921-4-0-6-9-0-7-8-5" />
    <path
       style="display:inline;fill:#00222b;stroke:#000000;stroke-width:0.295491;stroke-linecap:butt;stroke-linejoin:miter;stroke-miterlimit:4;stroke-dasharray:none;stroke-opacity:1"
       d="M 323.68123,98.465449 V 349.58345"
       id="path4921-4-00-6-1-0-7" />
    <path
       style="display:inline;fill:#00222b;stroke:#000000;stroke-width:0.212;stroke-linecap:butt;stroke-linejoin:miter;stroke-miterlimit:4;stroke-dasharray:none;stroke-opacity:1"
       d="M 293.91247,79.849927 V 360.26791"
       id="path4921-4-00-6-1-0-7-3" />
    <path
       style="fill:#00222b;stroke:#000000;stroke-width:0.2;stroke-linecap:butt;stroke-linejoin:miter;stroke-miterlimit:4;stroke-dasharray:none;stroke-opacity:1"
       d="m 430.73299,158.17595 v 155"
       id="path4921-4-0-6-9-0-7-8-5-3" />
    <path
       style="fill:#00222b;stroke:#000000;stroke-width:0.20166;stroke-linecap:butt;stroke-linejoin:miter;stroke-miterlimit:4;stroke-dasharray:none;stroke-opacity:1"
       d="m 396.21787,141.74215 v 183"
       id="path4921-4-0-6-9-0-7-8-5-3-7" />
    <path
       style="fill:#c6e9af;stroke:#000000;stroke-width:0.225433;stroke-linecap:butt;stroke-linejoin:miter;stroke-miterlimit:4;stroke-dasharray:none;stroke-opacity:1"
       d="m 503.39525,183.68254 v 105"
       id="path4921-4-0-6-9-0-7-8-5-0" />
    <path
       style="fill:#c6e9af;stroke:#000000;stroke-width:0.210308;stroke-linecap:butt;stroke-linejoin:miter;stroke-miterlimit:4;stroke-dasharray:none;stroke-opacity:1"
       d="m 580.79239,199.58891 v 60"
       id="path4921-4-0-6-9-0-7-8-5-8" />
    <path
       style="fill:#c6e9af;stroke:#000000;stroke-width:0.2;stroke-linecap:butt;stroke-linejoin:miter;stroke-miterlimit:4;stroke-dasharray:none;stroke-opacity:1"
       d="m 543.05504,193.54886 v 80"
       id="path4921-4-0-6-9-0-7-8-5-33" />
    <path
       style="fill:#c6e9af;stroke:#000000;stroke-width:0.18071;stroke-linecap:butt;stroke-linejoin:miter;stroke-miterlimit:4;stroke-dasharray:none;stroke-opacity:1"
       d="m 619.40285,202.73266 v 44.3"
       id="path4921-4-0-6-9-0-7-8-5-6" />
    <path
       style="fill:#c6e9af;stroke:#000000;stroke-width:0.198225;stroke-linecap:butt;stroke-linejoin:miter;stroke-miterlimit:4;stroke-dasharray:none;stroke-opacity:1"
       d="m 657.10862,200.80721 v 33"
       id="path4921-4-0-6-9-0-7-8-5-1" />
    <path
       style="fill:#c6e9af;stroke:#000000;stroke-width:0.18;stroke-linecap:butt;stroke-linejoin:miter;stroke-miterlimit:4;stroke-dasharray:none;stroke-opacity:1"
       d="m 691.87119,198.11115 v 22"
       id="path4921-4-0-6-9-0-7-8-5-16" />
    <path
       style="fill:#c6e9af;stroke:#000000;stroke-width:0.196948;stroke-linecap:butt;stroke-linejoin:miter;stroke-miterlimit:4;stroke-dasharray:none;stroke-opacity:1"
       d="m 718.03233,194.31229 v 17"
       id="path4921-4-0-6-9-0-7-8-5-16-9" />
    <path
       style="fill:#c6e9af;stroke:#000000;stroke-width:0.203753;stroke-linecap:butt;stroke-linejoin:miter;stroke-miterlimit:4;stroke-dasharray:none;stroke-opacity:1"
       d="m 747.96321,188.24331 v 12"
       id="path4921-4-0-6-9-0-7-8-5-16-9-0" />
    <path
       style="fill:#004455;stroke:#000000;stroke-width:0.194422;stroke-linecap:butt;stroke-linejoin:miter;stroke-miterlimit:4;stroke-dasharray:none;stroke-opacity:1"
       d="m 830.79234,158.12894 v 14"
       id="path4921-4-0-6-9-0-7-8-5-16-9-4" />
    <path
       style="fill:#c6e9af;stroke:#000000;stroke-width:0.203753;stroke-linecap:butt;stroke-linejoin:miter;stroke-miterlimit:4;stroke-dasharray:none;stroke-opacity:1"
       d="m 775.49393,179.67912 v 12"
       id="path4921-4-0-6-9-0-7-8-5-16-9-0-8" />
    <path
       style="fill:#c6e9af;stroke:#000000;stroke-width:0.203752;stroke-linecap:butt;stroke-linejoin:miter;stroke-miterlimit:4;stroke-dasharray:none;stroke-opacity:1"
       d="m 805.12724,169.09576 v 12"
       id="path4921-4-0-6-9-0-7-8-5-16-9-0-5" />
  </g>
  <g
     inkscape:groupmode="layer"
     id="layer16"
     inkscape:label="tengah">
    <path
       style="fill:none;stroke:#000000;stroke-width:0.965;stroke-linecap:butt;stroke-linejoin:miter;stroke-opacity:1;stroke-miterlimit:4;stroke-dasharray:23.16,23.16;stroke-dashoffset:0"
       d="M -1.4763699,523.55919 842.48346,186.54242"
       id="path5783"
       sodipodi:nodetypes="cc" />
  </g>
  <g
     inkscape:groupmode="layer"
     id="layer10"
     inkscape:label="samping jembatan"
     style="display:none">
    <path
       style="fill:none;stroke:#000000;stroke-width:0.123078px;stroke-linecap:butt;stroke-linejoin:miter;stroke-opacity:1"
       d="m 687.43568,301.13936 v -14.7698 l -19.50839,9.38311 z"
       id="path1675-0-0-9-8-0-3-5"
       sodipodi:nodetypes="cccc" />
    <path
       style="fill:none;stroke:#000000;stroke-width:0.115191px;stroke-linecap:butt;stroke-linejoin:miter;stroke-opacity:1"
       d="m 692.19821,284.78205 v 14.7698 l 15.70845,-21.56447 z"
       id="path1675-0-0-7-1-9-2-8"
       sodipodi:nodetypes="cccc" />
    <path
       style="fill:none;stroke:#000000;stroke-width:0.14126px;stroke-linecap:butt;stroke-linejoin:miter;stroke-opacity:1"
       d="m 311.34511,483.55268 -0.52917,-19.26843 -21.49232,29.87476 z"
       id="path1675-0-0-7-3"
       sodipodi:nodetypes="cccc" />
    <path
       style="fill:none;stroke:#000000;stroke-width:0.135231px;stroke-linecap:butt;stroke-linejoin:miter;stroke-opacity:1"
       d="m 223.91769,528.30673 v -23.736 l -23.77021,34.01709 z"
       id="path1675-4-7-2"
       sodipodi:nodetypes="cccc" />
    <path
       style="display:inline;fill:none;stroke:#000000;stroke-width:0.264583px;stroke-linecap:butt;stroke-linejoin:miter;stroke-opacity:1"
       d="M 354.61726,439.43512 17.840477,596.29525"
       id="path1390-2" />
    <path
       style="fill:none;stroke:#000000;stroke-width:0.135231px;stroke-linecap:butt;stroke-linejoin:miter;stroke-opacity:1"
       d="m 142.43765,542.17255 v 24.79434 l 28.00354,-13.37959 z"
       id="path1675"
       sodipodi:nodetypes="cccc" />
    <path
       style="fill:none;stroke:#000000;stroke-width:0.135231px;stroke-linecap:butt;stroke-linejoin:miter;stroke-opacity:1"
       d="m 88.284279,595.26973 v -25.3235 l -29.59104,13.37959 z"
       id="path1675-4"
       sodipodi:nodetypes="cccc" />
    <path
       style="fill:none;stroke:#000000;stroke-width:0.135231px;stroke-linecap:butt;stroke-linejoin:miter;stroke-opacity:1"
       d="m 186.98613,522.17736 v 23.736 l 23.77021,-34.01709 z"
       id="path1675-4-7"
       sodipodi:nodetypes="cccc" />
    <path
       style="fill:none;stroke:#000000;stroke-width:0.14126px;stroke-linecap:butt;stroke-linejoin:miter;stroke-opacity:1"
       d="m 230.73091,501.42308 v 22.44344 l 26.93516,-14.07537 z"
       id="path1675-0"
       sodipodi:nodetypes="cccc" />
    <path
       style="fill:none;stroke:#000000;stroke-width:0.14126px;stroke-linecap:butt;stroke-linejoin:miter;stroke-opacity:1"
       d="m 268.65853,506.30513 v -21.91427 l -27.46434,13.5462 z"
       id="path1675-0-0"
       sodipodi:nodetypes="cccc" />
    <path
       style="fill:none;stroke:#000000;stroke-width:0.135231px;stroke-linecap:butt;stroke-linejoin:miter;stroke-opacity:1"
       d="m 134.78905,569.10964 v -23.736 l -24.82854,36.66292 z"
       id="path1675-4-7-2-2"
       sodipodi:nodetypes="cccc" />
    <path
       style="fill:none;stroke:#000000;stroke-width:0.135231px;stroke-linecap:butt;stroke-linejoin:miter;stroke-opacity:1"
       d="m 95.692617,566.7712 v 23.736 l 24.828513,-36.66292 z"
       id="path1675-4-7-2-2-9"
       sodipodi:nodetypes="cccc" />
    <path
       style="fill:none;stroke:#000000;stroke-width:0.14126px;stroke-linecap:butt;stroke-linejoin:miter;stroke-opacity:1"
       d="m 275.17839,482.27488 v 20.85594 l 22.02149,-30.93311 z"
       id="path1675-0-0-7"
       sodipodi:nodetypes="cccc" />
    <path
       style="fill:none;stroke:#000000;stroke-width:0.135231px;stroke-linecap:butt;stroke-linejoin:miter;stroke-opacity:1"
       d="m 180.36252,550.37485 v -24.26517 l -28.00354,13.37959 z"
       id="path1675-4-6"
       sodipodi:nodetypes="cccc" />
    <path
       style="fill:none;stroke:#000000;stroke-width:0.13077px;stroke-linecap:butt;stroke-linejoin:miter;stroke-opacity:1"
       d="m 45.836359,588.4796 v 6.08664 l 24.844116,0.0633 z"
       id="path1675-44"
       sodipodi:nodetypes="cccc" />
    <path
       style="fill:none;stroke:#000000;stroke-width:0.14126px;stroke-linecap:butt;stroke-linejoin:miter;stroke-opacity:1"
       d="m 317.80996,462.44744 v 19.26844 l 26.93516,-13.5462 z"
       id="path1675-0-02"
       sodipodi:nodetypes="cccc" />
    <path
       style="fill:none;stroke:#000000;stroke-width:0.133464px;stroke-linecap:butt;stroke-linejoin:miter;stroke-opacity:1"
       d="m 353.08682,463.45008 v -17.80889 l -26.01477,12.5201 z"
       id="path1675-0-02-3"
       sodipodi:nodetypes="cccc" />
    <path
       style="fill:none;stroke:#000000;stroke-width:0.14126px;stroke-linecap:butt;stroke-linejoin:miter;stroke-opacity:1"
       d="m 382.28818,429.65193 v 19.26843 l 25.34766,-12.48786 z"
       id="path1675-0-02-5"
       sodipodi:nodetypes="cccc" />
    <path
       style="fill:none;stroke:#000000;stroke-width:0.140821px;stroke-linecap:butt;stroke-linejoin:miter;stroke-opacity:1"
       d="m 418.04072,432.45566 v -19.7976 l -25.19027,11.9587 z"
       id="path1675-0-0-9"
       sodipodi:nodetypes="cccc" />
    <path
       style="fill:none;stroke:#000000;stroke-width:0.129839px;stroke-linecap:butt;stroke-linejoin:miter;stroke-opacity:1"
       d="m 425.08277,410.07705 v 18.76541 l 19.94179,-28.65293 z"
       id="path1675-0-0-7-1"
       sodipodi:nodetypes="cccc" />
    <path
       style="fill:none;stroke:#000000;stroke-width:0.134966px;stroke-linecap:butt;stroke-linejoin:miter;stroke-opacity:1"
       d="m 457.32934,411.77202 v -17.58971 l -20.96316,28.33031 z"
       id="path1675-0-0-7-3-3"
       sodipodi:nodetypes="cccc" />
    <path
       style="fill:none;stroke:#000000;stroke-width:0.14126px;stroke-linecap:butt;stroke-linejoin:miter;stroke-opacity:1"
       d="m 463.01747,392.03427 v 17.68093 l 24.81849,-11.42953 z"
       id="path1675-0-02-5-1"
       sodipodi:nodetypes="cccc" />
    <path
       style="fill:none;stroke:#000000;stroke-width:0.133683px;stroke-linecap:butt;stroke-linejoin:miter;stroke-opacity:1"
       d="m 496.19457,394.8199 v -17.94478 l -24.1797,11.47879 z"
       id="path1675-0-0-9-8"
       sodipodi:nodetypes="cccc" />
    <path
       style="fill:none;stroke:#000000;stroke-width:0.128985px;stroke-linecap:butt;stroke-linejoin:miter;stroke-opacity:1"
       d="m 501.60491,374.60171 v 18.51927 l 19.94179,-28.2771 z"
       id="path1675-0-0-7-1-9"
       sodipodi:nodetypes="cccc" />
    <path
       style="fill:none;stroke:#000000;stroke-width:0.127929px;stroke-linecap:butt;stroke-linejoin:miter;stroke-opacity:1"
       d="M 532.47919,376.13405 V 360.33078 L 513.6327,385.78382 Z"
       id="path1675-0-0-7-3-3-1"
       sodipodi:nodetypes="cccc" />
    <path
       style="fill:none;stroke:#000000;stroke-width:0.119733px;stroke-linecap:butt;stroke-linejoin:miter;stroke-opacity:1"
       d="m 537.84172,357.49572 v 16.16017 l 19.50838,-9.91729 z"
       id="path1675-0-02-5-1-7"
       sodipodi:nodetypes="cccc" />
    <path
       style="fill:none;stroke:#000000;stroke-width:0.124057px;stroke-linecap:butt;stroke-linejoin:miter;stroke-opacity:1"
       d="m 564.64788,360.49959 v -15.82812 l -20.82292,9.36213 z"
       id="path1675-0-0-9-8-0"
       sodipodi:nodetypes="cccc" />
    <path
       style="fill:none;stroke:#000000;stroke-width:0.119246px;stroke-linecap:butt;stroke-linejoin:miter;stroke-opacity:1"
       d="m 569.93958,342.55479 v 15.82812 l 19.41262,-24.69715 z"
       id="path1675-0-0-7-1-9-2"
       sodipodi:nodetypes="cccc" />
    <path
       style="fill:none;stroke:#000000;stroke-width:0.127912px;stroke-linecap:butt;stroke-linejoin:miter;stroke-opacity:1"
       d="M 599.21139,344.22499 V 329.1828 l -18.99829,24.34664 z"
       id="path1675-0-0-7-3-3-1-3"
       sodipodi:nodetypes="cccc" />
    <path
       style="fill:none;stroke:#000000;stroke-width:0.115517px;stroke-linecap:butt;stroke-linejoin:miter;stroke-opacity:1"
       d="m 603.44475,327.59529 v 15.04219 l 19.50839,-9.2312 z"
       id="path1675-0-02-5-1-7-3"
       sodipodi:nodetypes="cccc" />
    <path
       style="fill:none;stroke:#000000;stroke-width:0.123078px;stroke-linecap:butt;stroke-linejoin:miter;stroke-opacity:1"
       d="m 629.00093,330.44701 v -15.82812 l -20.49557,9.36213 z"
       id="path1675-0-0-9-8-0-3"
       sodipodi:nodetypes="cccc" />
    <path
       style="fill:none;stroke:#000000;stroke-width:0.119251px;stroke-linecap:butt;stroke-linejoin:miter;stroke-opacity:1"
       d="m 657.34389,314.98823 v -13.94386 l -15.3323,23.09917 z"
       id="path1675-0-0-7-3-3-1-3-1"
       sodipodi:nodetypes="cccc" />
    <path
       style="fill:none;stroke:#000000;stroke-width:0.11122px;stroke-linecap:butt;stroke-linejoin:miter;stroke-opacity:1"
       d="m 661.57725,298.92769 v 14.47303 l 19.50839,-9.08634 z"
       id="path1675-0-02-5-1-7-3-9"
       sodipodi:nodetypes="cccc" />
    <path
       style="fill:none;stroke:#000000;stroke-width:0.119246px;stroke-linecap:butt;stroke-linejoin:miter;stroke-opacity:1"
       d="m 633.24847,312.71606 v 15.82812 l 15.70845,-23.10965 z"
       id="path1675-0-0-7-1-9-2-8-4"
       sodipodi:nodetypes="cccc" />
    <path
       style="fill:none;stroke:#000000;stroke-width:0.105731px;stroke-linecap:butt;stroke-linejoin:miter;stroke-opacity:1"
       d="M 716.22873,286.74852 V 273.5842 l -13.7353,20.26936 z"
       id="path1675-0-0-7-3-3-1-3-1-0"
       sodipodi:nodetypes="cccc" />
    <path
       style="fill:none;stroke:#000000;stroke-width:0.0948209px;stroke-linecap:butt;stroke-linejoin:miter;stroke-opacity:1"
       d="m 719.93085,271.45793 v 13.18348 l 15.56668,-6.68925 z"
       id="path1675-0-02-5-1-7-3-9-0"
       sodipodi:nodetypes="cccc" />
    <path
       style="fill:none;stroke:#000000;stroke-width:0.10057px;stroke-linecap:butt;stroke-linejoin:miter;stroke-opacity:1"
       d="m 739.34976,262.04612 v 13.67223 l -14.07115,-6.56916 z"
       id="path1675-0-0-9-8-0-3-5-7"
       sodipodi:nodetypes="cccc" />
    <path
       style="fill:none;stroke:#000000;stroke-width:0.109662px;stroke-linecap:butt;stroke-linejoin:miter;stroke-opacity:1"
       d="m 742.97695,260.84604 v 13.38586 l 13.59178,-19.54387 z"
       id="path1675-0-0-7-1-9-2-8-2"
       sodipodi:nodetypes="cccc" />
    <path
       style="fill:none;stroke:#000000;stroke-width:0.101965px;stroke-linecap:butt;stroke-linejoin:miter;stroke-opacity:1"
       d="m 764.17617,262.96552 v -12.24341 l -13.7353,18.85141 z"
       id="path1675-0-0-7-3-3-1-3-1-0-3"
       sodipodi:nodetypes="cccc" />
    <path
       style="fill:none;stroke:#000000;stroke-width:0.0913776px;stroke-linecap:butt;stroke-linejoin:miter;stroke-opacity:1"
       d="m 767.35119,249.1346 v 12.77258 l 14.50834,-6.74143 z"
       id="path1675-0-02-5-1-7-3-9-0-6"
       sodipodi:nodetypes="cccc" />
    <path
       style="fill:none;stroke:#000000;stroke-width:0.10057px;stroke-linecap:butt;stroke-linejoin:miter;stroke-opacity:1"
       d="m 786.53045,240.02152 v 13.67223 l -14.07115,-6.56916 z"
       id="path1675-0-0-9-8-0-3-5-7-5"
       sodipodi:nodetypes="cccc" />
    <path
       style="fill:none;stroke:#000000;stroke-width:0.109662px;stroke-linecap:butt;stroke-linejoin:miter;stroke-opacity:1"
       d="m 789.77514,238.53384 v 13.38586 l 13.59178,-19.54387 z"
       id="path1675-0-0-7-1-9-2-8-2-5"
       sodipodi:nodetypes="cccc" />
    <path
       style="fill:none;stroke:#000000;stroke-width:0.101965px;stroke-linecap:butt;stroke-linejoin:miter;stroke-opacity:1"
       d="m 810.21359,241.52703 v -12.24341 l -13.7353,18.85141 z"
       id="path1675-0-0-7-3-3-1-3-1-0-3-0"
       sodipodi:nodetypes="cccc" />
    <path
       style="fill:none;stroke:#000000;stroke-width:0.0913776px;stroke-linecap:butt;stroke-linejoin:miter;stroke-opacity:1"
       d="m 813.56315,227.01227 v 12.77258 l 14.50834,-6.74143 z"
       id="path1675-0-02-5-1-7-3-9-0-6-4"
       sodipodi:nodetypes="cccc" />
    <path
       style="fill:none;stroke:#000000;stroke-width:0.10057px;stroke-linecap:butt;stroke-linejoin:miter;stroke-opacity:1"
       d="m 832.15246,218.13653 v 13.67223 l -14.07115,-6.56916 z"
       id="path1675-0-0-9-8-0-3-5-7-5-6"
       sodipodi:nodetypes="cccc" />
    <path
       style="fill:none;stroke:#000000;stroke-width:0.115395;stroke-linecap:butt;stroke-linejoin:miter;stroke-miterlimit:4;stroke-dasharray:none;stroke-opacity:1"
       d="m 841.52096,214.35329 -6.4179,2.44086 v 13.42469 l 6.64712,-6.30554 z"
       id="path2592" />
  </g>
  <g
     inkscape:groupmode="layer"
     id="layer13"
     inkscape:label="warna samping jembatan"
     style="display:inline">
    <g
       inkscape:groupmode="layer"
       id="layer11"
       inkscape:label="warna pilar"
       style="display:inline">
      <path
         style="fill:#0b2228;fill-opacity:0.992157;stroke:#000000;stroke-width:0;stroke-miterlimit:4;stroke-dasharray:none"
         d="m 936.00296,1326.1253 0.44361,-118.2646 53.24021,-65.0922 58.33652,-121.5274 -0.8239,186.9995 1.6534,165.8843 -35.5641,11.2861 c -17.06931,5.4169 -38.96572,13.2324 -48.57145,17.3924 l -26.9119,11.655 z"
         id="path2603"
         transform="scale(0.26458333)"
         sodipodi:nodetypes="ccccccsscc" />
      <path
         style="fill:#0b2228;fill-opacity:0.992157;stroke:#000000;stroke-width:0;stroke-miterlimit:4;stroke-dasharray:none"
         d="m 1354.011,2249.8186 -22.4206,0.9694 4,-648.7315 -2,-646.7314 -16.4943,-16.49435 c -14.2599,-14.25999 -17.3234,-21.59433 -20.1156,-32.03391 l -3.6213,-13.53954 -92.5967,2.10434 c -89.6099,2.03646 -119.7796,-2.12878 -118.2619,-7.29609 0.8625,-2.93674 4.4925,-27.32796 19.5108,-53.69705 l 31.37,-55.0793 109.615,-0.11327 91.7277,-0.75389 V 614.51151 l -0.01,-185.82427 27.8638,16.7985 c 8.2117,4.95065 16.0112,11.82464 35.7143,22.30605 l 33.2858,17.70697 -1.4286,895.07264 v 871.3584 l -31.8571,1.4598 c -15.3083,0.7015 -35.2464,-3.0041 -44.2777,-3.571 z"
         id="path2605"
         sodipodi:nodetypes="ccccsscssscccccsscccssc"
         transform="scale(0.26458333)" />
      <path
         style="fill:#0b2228;fill-opacity:0.992157;stroke:#000000;stroke-width:0;stroke-miterlimit:4;stroke-dasharray:none"
         d="m 946.14582,2106.2334 2.12132,-143.9821 41.1738,-19.6837 c 24.02746,-11.4866 48.88766,-27.2486 52.82836,-27.0613 l 5.8765,0.2792 -2,166.215 v 164.215 h -49.99998 -50 z"
         id="path2607"
         transform="scale(0.26458333)"
         sodipodi:nodetypes="ccsscccccc" />
      <path
         style="fill:#0b2228;fill-opacity:0.992157;stroke:#000000;stroke-width:0;stroke-miterlimit:4;stroke-dasharray:none"
         d="m 1162.2234,1858.3284 c 0.7236,-0.7236 46.9488,-24.6345 90.4762,-45.8517 l 83.1605,-40.5361 v 45.8518 l -0.1839,40.7113 -84.2923,-0.8596 c -44.2596,-0.4514 -89.8841,1.4079 -89.1605,0.6843 z"
         id="path2609"
         transform="scale(0.26458333)"
         sodipodi:nodetypes="sscccss" />
      <path
         style="fill:#0b2228;fill-opacity:0.992157;stroke:#000000;stroke-width:0;stroke-miterlimit:4;stroke-dasharray:none"
         d="m 942.29609,883.91261 -0.15027,-317.94806 16.55165,-60.33368 c 18.44489,-67.23488 91.04813,-299.00425 85.49813,-313.46743 -2.7743,-7.22959 -5.0787,-10.14992 -6.835,-2.44563 -0.806,3.53571 -5.3996,20.42857 -10.2079,42.42857 -17.037,77.95098 -54.69514,218.81975 -72.95088,265.42857 l -11.63849,81.71429 -0.20875,-219.28572 -0.20876,-149.28571 19,-2.0728 c 14.82304,-1.61712 15.20384,-2.24992 49.28568,-31.86253 18.8572,-16.38435 35.9201,-31.85159 37.9177,-31.9272 1.9976,-0.0756 20.4102,13.16068 38.5714,29.71967 l 34.9395,27.85715 55.7021,0.97284 55.7021,-3.02716 28.2689,-24.68713 c 15.5478,-13.57787 31.8181,-30.36044 38.5836,-33.55014 l 10.3147,-8.86302 39.1429,31.77121 37.1428,27.7712 18.7143,0.41396 24.7143,0.41397 v 142.82071 c 0,78.55138 1.1233,150.8207 0.052,150.8207 -1.0715,0 -28.1317,-15.05152 -51.7143,-30.301 l -43.7661,-28.301 v -33.96656 -31.96654 l -16.8447,-13.21489 c -10.5186,-8.25198 -27.9283,-38.40484 -29.8594,-44.25601 -3.9349,-11.92298 1.2445,3.20918 16.8484,-71.07295 6.3635,-30.29342 11.57,-53.52821 11.57,-56.52175 0,-6.91854 -6.7965,-12.66166 -11.5965,-7.40724 -1.9419,2.1258 -4.4057,26.24363 -10.364,56.03964 -5.9582,29.796 -10.1316,59.40358 -11.7649,64.31166 l -4.1102,12.35139 -63.5143,-0.27894 c -45.6342,-0.20041 -61.1184,3.23878 -66.2491,0.49292 -4.9212,-2.63377 0.7899,-2.01118 -0.01,0.38863 -0.7142,2.14267 -18.1256,-1.44026 -35.7719,-1.44026 -25.1752,0 -24.9048,0.37467 -24.9048,5.82811 0,9.77849 -10.005,32.95221 -27.4835,45.20734 L 1048.146,363.3601 V 571.32466 779.2892 h 40.6177 44.6177 l -15.1527,39.28571 c -44.4895,115.34596 -38.915,110.68959 -55.9398,125.34403 l -17,14.63309 0.5051,60.35287 c 0.1578,18.8606 3.1464,-19.28645 -22.3577,35.4013 -14.6468,31.4066 -35.25428,85.037 -49.64324,107.2227 l -37.34649,50.3318 z"
         id="path2615"
         transform="scale(0.26458333)"
         sodipodi:nodetypes="ccssssscccsssscccsscccccssscccssssssscsssssscccccsscssscc" />
      <path
         style="fill:#eeffaa;fill-opacity:0.992157;stroke:#000000;stroke-width:1.09066;stroke-miterlimit:4;stroke-dasharray:none"
         d=""
         id="path2617"
         transform="scale(0.26458333)" />
    </g>
    <g
       inkscape:groupmode="layer"
       id="layer14"
       inkscape:label="garis">
      <path
         style="fill:#c6e9af;stroke:#000000;stroke-width:0.171715;stroke-linecap:butt;stroke-linejoin:miter;stroke-miterlimit:4;stroke-dasharray:none;stroke-opacity:1"
         d="m 735.01309,218.28743 v 40"
         id="path4921-4-0-6-9-0-7-0-3" />
      <path
         style="fill:#c6e9af;stroke:#000000;stroke-width:0.358398;stroke-linecap:butt;stroke-linejoin:miter;stroke-miterlimit:4;stroke-dasharray:none;stroke-opacity:1"
         d="m 793.75072,207.17501 v 20.5"
         id="path4921-4-0-6-9-0-7-0-1" />
      <path
         style="fill:#00222b;stroke:#000000;stroke-width:0.353999;stroke-linecap:butt;stroke-linejoin:miter;stroke-miterlimit:4;stroke-dasharray:none;stroke-opacity:1"
         d="m 237.36787,181.65903 v 200"
         id="path4921-4-0-6-9-0-7-5-0" />
      <rect
         style="fill:#7f2aff;fill-opacity:1;stroke:url(#linearGradient4865);stroke-width:0;stroke-miterlimit:4;stroke-dasharray:none;stroke-dashoffset:0"
         id="rect4857"
         width="0"
         height="80.130913"
         x="-424.84521"
         y="337.15472" />
      <path
         style="fill:#c6e9af;stroke:#000000;stroke-width:0.354;stroke-linecap:butt;stroke-linejoin:miter;stroke-miterlimit:4;stroke-dasharray:none;stroke-opacity:1"
         d="m 88.456716,519.33571 v 37.41775"
         id="path4921" />
      <path
         style="fill:#c6e9af;stroke:#000000;stroke-width:0.354;stroke-linecap:butt;stroke-linejoin:miter;stroke-miterlimit:4;stroke-dasharray:none;stroke-opacity:1"
         d="m 32.695502,552.96872 v 27.418"
         id="path4921-4" />
      <path
         style="fill:#c6e9af;stroke:#000000;stroke-width:0.354;stroke-linecap:butt;stroke-linejoin:miter;stroke-miterlimit:4;stroke-dasharray:none;stroke-opacity:1"
         d="m 60.741353,536.56445 v 32.418"
         id="path4921-5" />
      <path
         style="fill:#c6e9af;stroke:#000000;stroke-width:0.354;stroke-linecap:butt;stroke-linejoin:miter;stroke-miterlimit:4;stroke-dasharray:none;stroke-opacity:1"
         d="m 115.05596,500.18742 v 45"
         id="path4921-4-0" />
      <path
         style="fill:#c6e9af;stroke:#000000;stroke-width:0.354;stroke-linecap:butt;stroke-linejoin:miter;stroke-miterlimit:4;stroke-dasharray:none;stroke-opacity:1"
         d="m 139.62441,475.44584 v 58"
         id="path4921-4-0-6" />
      <path
         style="fill:#c6e9af;stroke:#000000;stroke-width:0.352527;stroke-linecap:butt;stroke-linejoin:miter;stroke-miterlimit:4;stroke-dasharray:none;stroke-opacity:1"
         d="m 163.21028,451.40759 v 70"
         id="path4921-4-0-6-9" />
      <path
         style="fill:#c6e9af;stroke:#000000;stroke-width:0.359625;stroke-linecap:butt;stroke-linejoin:miter;stroke-miterlimit:4;stroke-dasharray:none;stroke-opacity:1"
         d="m 189.89539,421.46116 v 87.1"
         id="path4921-4-0-6-9-5" />
      <path
         style="fill:#00222b;stroke:#000000;stroke-width:0.361165;stroke-linecap:butt;stroke-linejoin:miter;stroke-miterlimit:4;stroke-dasharray:none;stroke-opacity:1"
         d="m 215.62801,383.26739 v 115"
         id="path4921-4-0-6-9-7" />
      <path
         style="fill:#c6e9af;stroke:#000000;stroke-width:0.239787;stroke-linecap:butt;stroke-linejoin:miter;stroke-miterlimit:4;stroke-dasharray:none;stroke-opacity:1"
         d="m 641.3609,222.34666 v 78"
         id="path4921-4-0-6-9-0-7" />
      <path
         style="fill:#00222b;stroke:#000000;stroke-width:0.35;stroke-linecap:butt;stroke-linejoin:miter;stroke-miterlimit:4;stroke-dasharray:none;stroke-opacity:1"
         d="m 277.58587,269.61707 v 200"
         id="path4921-4-0-6-9-0-7-5" />
      <path
         style="display:inline;fill:#00222b;stroke:#000000;stroke-width:0.35;stroke-linecap:butt;stroke-linejoin:miter;stroke-miterlimit:4;stroke-dasharray:none;stroke-opacity:1"
         d="m 308.65406,182.76739 v 270.418"
         id="path4921-4-00-6-5" />
      <path
         style="display:inline;fill:#00222b;stroke:#000000;stroke-width:0.35;stroke-linecap:butt;stroke-linejoin:miter;stroke-miterlimit:4;stroke-dasharray:none;stroke-opacity:1"
         d="M 340.07864,76.291345 V 437.70934"
         id="path4921-4-00-8" />
      <path
         style="display:inline;fill:#00222b;stroke:#000000;stroke-width:0.298588;stroke-linecap:butt;stroke-linejoin:miter;stroke-miterlimit:4;stroke-dasharray:none;stroke-opacity:1"
         d="m 256.64553,117.29488 v 256.418"
         id="path4921-4-00-6-8" />
      <path
         style="fill:#c6e9af;stroke:#000000;stroke-width:0.198419;stroke-linecap:butt;stroke-linejoin:miter;stroke-miterlimit:4;stroke-dasharray:none;stroke-opacity:1"
         d="m 191.47745,272.31933 v 125"
         id="path4921-4-0-6-9-0-6" />
      <path
         style="fill:#00222b;stroke:#000000;stroke-width:0.2;stroke-linecap:butt;stroke-linejoin:miter;stroke-miterlimit:4;stroke-dasharray:none;stroke-opacity:1"
         d="m 214.31241,230.18678 v 160"
         id="path4921-4-0-6-9-0-0" />
      <path
         style="fill:#c6e9af;stroke:#000000;stroke-width:0.192567;stroke-linecap:butt;stroke-linejoin:miter;stroke-miterlimit:4;stroke-dasharray:none;stroke-opacity:1"
         d="m 52.916648,422.32414 v 25.418"
         id="path4921-4-5" />
      <path
         style="fill:#c6e9af;stroke:#000000;stroke-width:0.19731;stroke-linecap:butt;stroke-linejoin:miter;stroke-miterlimit:4;stroke-dasharray:none;stroke-opacity:1"
         d="m 82.550001,401.4493 v 36.418"
         id="path4921-42" />
      <path
         style="fill:#c6e9af;stroke:#000000;stroke-width:0.201606;stroke-linecap:butt;stroke-linejoin:miter;stroke-miterlimit:4;stroke-dasharray:none;stroke-opacity:1"
         d="m 137.05423,353.90832 v 63"
         id="path4921-4-0-6-9-72" />
      <path
         style="fill:#c6e9af;stroke:#000000;stroke-width:0.202326;stroke-linecap:butt;stroke-linejoin:miter;stroke-miterlimit:4;stroke-dasharray:none;stroke-opacity:1"
         d="m 164.04149,320.17018 v 87.5"
         id="path4921-4-0-6-9-5-2" />
      <path
         style="fill:#c6e9af;stroke:#000000;stroke-width:0.2;stroke-linecap:butt;stroke-linejoin:miter;stroke-miterlimit:4;stroke-dasharray:none;stroke-opacity:1"
         d="m 110.5959,380.65835 v 45.418"
         id="path4921-421" />
      <path
         style="display:inline;fill:#00222b;stroke:#000000;stroke-width:0.350624;stroke-linecap:butt;stroke-linejoin:miter;stroke-miterlimit:4;stroke-dasharray:none;stroke-opacity:1"
         d="m 410.6336,123.46139 v 281.418"
         id="path4921-4-00-6-5-8" />
      <path
         style="display:inline;fill:#00222b;stroke:#000000;stroke-width:0.352721;stroke-linecap:butt;stroke-linejoin:miter;stroke-miterlimit:4;stroke-dasharray:none;stroke-opacity:1"
         d="M 382.58734,94.357583 V 419.77558"
         id="path4921-4-00-6-5-8-7" />
      <path
         style="display:inline;fill:#c6e9af;stroke:#000000;stroke-width:0.348222;stroke-linecap:butt;stroke-linejoin:miter;stroke-miterlimit:4;stroke-dasharray:none;stroke-opacity:1"
         d="m 484.71683,176.5078 v 195.418"
         id="path4921-4-00-6-2" />
      <path
         style="display:inline;fill:#c6e9af;stroke:#000000;stroke-width:0.350755;stroke-linecap:butt;stroke-linejoin:miter;stroke-miterlimit:4;stroke-dasharray:none;stroke-opacity:1"
         d="m 447.67497,156.3997 v 232.418"
         id="path4921-4-00-6-1" />
      <path
         style="fill:#c6e9af;stroke:#000000;stroke-width:0.340198;stroke-linecap:butt;stroke-linejoin:miter;stroke-miterlimit:4;stroke-dasharray:none;stroke-opacity:1"
         d="m 524.41379,196.97854 v 157"
         id="path4921-4-0-6-9-0-7-3" />
      <path
         style="fill:#c6e9af;stroke:#000000;stroke-width:0.304766;stroke-linecap:butt;stroke-linejoin:miter;stroke-miterlimit:4;stroke-dasharray:none;stroke-opacity:1"
         d="m 562.50448,209.98303 v 126"
         id="path4921-4-0-6-9-0-7-8" />
      <path
         style="fill:#c6e9af;stroke:#000000;stroke-width:0.271507;stroke-linecap:butt;stroke-linejoin:miter;stroke-miterlimit:4;stroke-dasharray:none;stroke-opacity:1"
         d="m 602.16182,218.3138 v 100"
         id="path4921-4-0-6-9-0-7-8-8" />
      <path
         style="fill:#00222b;stroke:#000000;stroke-width:0.355786;stroke-linecap:butt;stroke-linejoin:miter;stroke-miterlimit:4;stroke-dasharray:none;stroke-opacity:1"
         d="m 247.50769,327.92094 v 155"
         id="path4921-4-0-6-9-7-0" />
      <path
         style="fill:#c6e9af;stroke:#000000;stroke-width:0.354;stroke-linecap:butt;stroke-linejoin:miter;stroke-miterlimit:4;stroke-dasharray:none;stroke-opacity:1"
         d="m 677.56189,222.90965 v 60"
         id="path4921-4-0-6-9-0-7-0" />
      <path
         style="fill:#c6e9af;stroke:#000000;stroke-width:0.33208;stroke-linecap:butt;stroke-linejoin:miter;stroke-miterlimit:4;stroke-dasharray:none;stroke-opacity:1"
         d="m 820.73772,200.0791 v 17.6"
         id="path4921-4-0-6-9-0-7-0-1-4" />
      <path
         style="fill:#c6e9af;stroke:#000000;stroke-width:0.354;stroke-linecap:butt;stroke-linejoin:miter;stroke-miterlimit:4;stroke-dasharray:none;stroke-opacity:1"
         d="m 765.17541,213.65414 v 30"
         id="path4921-4-0-6-9-0-7-0-3-6" />
      <path
         style="fill:#c6e9af;stroke:#000000;stroke-width:0.357912;stroke-linecap:butt;stroke-linejoin:miter;stroke-miterlimit:4;stroke-dasharray:none;stroke-opacity:1"
         d="m 708.53223,222.86953 v 46"
         id="path4921-4-0-6-9-0-7-0-3-5" />
    </g>
    <path
       style="fill:#004455;fill-opacity:1;stroke:#000000;stroke-width:0;stroke-miterlimit:4;stroke-dasharray:none;stroke-dashoffset:0"
       d="m 417.46728,2209.5164 0.2906,-11.8228 45.96194,-23.9394 45.96194,-23.9394 0.26283,-43.6575 c 0.15118,-25.1116 -0.0827,-43.6392 -0.50507,-43.6168 -0.42235,0.022 -19.22347,28.2941 -44.22478,65.2705 l -45.45686,67.2297 -2.27233,-21.8454 -0.27232,-21.8455 17.68221,-29.01 c 10.0351,-16.4639 21.26643,-29.154 20.75825,-29.3299 -0.50818,-0.1759 -5.0014,4.858 -15.69887,9.4442 l -22.77491,11.7641 0.28899,-12.2254 0.28898,-12.2255 456.58895,-212.7049 c 251.12397,-116.9877 460.12417,-217.9568 460.84037,-218.2521 1.0198,-0.4204 0.6436,7.8047 0.2753,15.1657 l -0.5064,10.1209 -26.7488,13.9122 c -69.3187,36.053 -71.3112,33.3673 -69.2157,34.257 1.1112,0.4718 20.4759,2.9851 45.4772,8.0295 25.0012,5.0443 50.2523,11.4128 51.2246,11.7077 1.5276,0.4633 -0.2322,3.8873 -0.2322,12.48 v 9.9439 l -13.8693,6.2937 c -9.634,4.3718 -898.05685,438.0245 -903.11447,440.0876 -1.01939,0.4158 -1.23789,-3.5941 -1.01015,-11.2921 z m 170.7086,-91.5416 c 26.83181,-12.8466 50.79947,-24.2685 53.26146,-25.3821 4.46411,-2.0191 4.46964,1.9719 2.02031,0.7083 -3.08225,-1.5901 -104.57119,-42.923 -105.39322,-42.923 -0.33191,0 1.39653,19.3647 1.39653,45.4771 0,29.494 -1.63452,45.4772 -1.0351,45.4772 0.53071,0 22.91821,-10.5109 49.75002,-23.3575 z m 92.74704,-89.8568 c 0,-43.8832 1.89748,-40.5559 0.23224,-40.0856 -4.88874,1.3805 -104.28804,50.6748 -103.60218,51.3374 1.03977,1.0046 102.45056,41.2539 104.10725,41.2988 0.9924,0.027 -0.73731,-15.9379 -0.73731,-52.5506 z m 70.16723,-29.6186 c 24.78836,-35.4892 44.93219,-62.6634 44.76407,-62.8315 -0.16812,-0.1681 -18.47951,9.537 -44.00173,19.4589 l -45.69606,19.7645 v 44.0266 c 0,28.1309 0.36237,45.6534 0.93199,45.0669 0.51259,-0.5278 19.21337,-29.9962 44.00173,-65.4854 z m 50.75237,16.4206 44.72512,-21.3361 v -42.0208 c 0,-25.9318 -0.38114,-43.6018 -0.87312,-43.0611 -1.57795,1.7344 -90.04061,126.7057 -90.04061,127.2362 0,0.2849 0.32929,0.5179 0.73174,0.5179 0.40246,0 21.26889,-9.7972 45.45687,-21.3361 z m 121.12602,-62.5488 c 27.70529,-14.4796 50.75457,-24.7024 51.22065,-25.1619 0.46607,-0.4594 -2.03406,0.2287 -5.55584,-0.9154 -21.9162,-7.1193 -92.87637,-27.4591 -94.21129,-27.4591 -1.44899,0 -1.61076,0.3119 -1.61076,38.9314 0,24.1566 -1.60991,42.9315 -1.108,42.9315 0.4906,0 23.55996,-13.8469 51.26524,-28.3265 z m 91.30476,-80.2649 c 0,-23.0567 1.6181,-39.9213 1.1513,-39.9213 -2.3119,0 -103.53171,49.8691 -102.2072,50.3653 5.10498,1.9123 99.8451,29.3056 101.2881,29.3828 1.6567,0.089 -0.2322,-0.5391 -0.2322,-39.8268 z m 68.6457,-31.1381 c 22.8716,-32.138 41.3734,-56.644 41.115,-56.9024 -0.2583,-0.2583 -19.269,8.1313 -42.2459,18.6435 l -41.7763,21.1133 -0.2641,38.7604 c -0.1684,24.709 0.1002,38.3778 0.6612,37.789 0.509,-0.5342 19.6385,-27.2659 42.5101,-59.4038 z m 52.6459,5.43 41.8277,-20.1726 -0.1324,-1.7595 c -0.1553,-2.0633 -2.4664,-18.9005 -2.8745,-37.4061 -0.4082,-18.5056 0.9695,-29.6265 0.6171,-29.602 -0.7841,0.055 -80.7111,107.3003 -81.5651,109.5257 -0.3349,0.8729 -0.4046,-0.4129 -0.1548,-0.4129 0.2499,0 18.8564,-9.995 42.282,-20.1726 z m 117.3406,-52.6697 c 27.9159,-13.9508 50.9456,-23.5423 51.1771,-23.7589 0.2314,-0.2166 0.2314,1.4202 0,1.1929 -0.5198,-0.5104 -100.7244,-23.81 -102.6059,-23.81 -1.1094,0 0.6443,6.6993 0.6443,36.8706 0,24.0029 -1.6461,36.8705 -0.9859,36.8705 0.5578,0 23.8544,-13.4143 51.7704,-27.3651 z"
       id="path4705"
       transform="scale(0.26458333)"
       sodipodi:nodetypes="scccssscccssscccssscssssscsssssssssssssssssscsssscssssssscsssssssssssscsssscsscssssssssss" />
    <path
       style="fill:#004455;fill-opacity:1;stroke:#000000;stroke-width:0;stroke-miterlimit:4;stroke-dasharray:none;stroke-dashoffset:0"
       d="m 1430.7377,1670.6579 0.5366,-62.731 305.066,-142.0233 c 167.7864,-78.1129 560.0791,-262.847 871.7617,-408.0759 311.6826,-145.22884 567.832,-262.53368 569.2209,-263.12183 1.7317,-0.73329 2.5254,3.06611 2.5254,7.72537 0,6.44103 -1.2841,3.47727 -11.6167,8.9689 l -11.6168,6.17416 -0.5637,26.62289 c -0.31,14.64259 0.1159,26.62289 0.9466,26.62289 0.8307,0 5.7908,-7.41703 12.2915,-12.6066 l 10.7811,-8.6066 -0.6161,9.99203 -0.616,11.99204 -872.7718,426.79685 c -480.0245,234.7383 -875.4678,430.8428 -876.3185,430.8989 -0.8507,0.056 0.7229,-27.4265 0.9898,-58.6288 z m 66.965,-0.1892 c 24.3128,-12.1506 43.4047,-20.7901 42.4264,-21.6432 -0.9783,-0.8532 -21.3251,-4.7424 -45.2152,-11.0871 -23.8901,-6.3448 -45.0276,-14.0087 -46.9721,-14.5865 -3.2783,-0.9742 -3.5355,1.6888 -3.5355,36.5973 v 37.648 l 4.5456,-3.4182 c 2.0932,-1.5741 24.438,-11.3596 48.7508,-23.5103 z m 82.0843,-73.5651 c 0,-30.9065 1.445,-37.3798 -0.5254,-36.5551 -9.7362,4.0748 -93.7752,44.5331 -95.104,45.7851 -0.9157,0.8629 6.3574,0.037 16.1624,3.0544 9.8051,3.017 31.4645,9.8508 48.132,15.1861 16.6675,5.3354 30.9864,9.7999 31.8198,9.9211 0.8333,0.1213 -0.4848,-15.6049 -0.4848,-37.3916 z m 65.6386,-31.0783 c 35.055,-50.3547 39.0751,-54.5685 36.5967,-54.5685 -0.6667,0 -17.6084,11.3069 -38.6019,20.6625 l -37.3897,18.6624 v 35.3 c 0,21.3884 0.7529,34.4813 1.765,33.3807 0.9708,-1.0556 17.9042,-25.1023 37.6299,-53.4371 z m 44.4876,9.9276 37.3561,-18.377 v -34.2905 c 0,-19.6902 1.2293,-31.8141 0.1899,-31.1718 -2.1293,1.316 -77.6763,101.349 -78.6654,104.2448 -0.3704,1.0843 -0.1251,-0.029 0.545,-0.029 0.6701,0 18.4884,-10.0641 40.5744,-20.377 z m 109.5617,-50.3962 c 24.7235,-11.4055 44.9477,-19.2849 44.9428,-19.9541 -0.01,-1.092 -89.7621,-22.631 -93.4301,-22.5032 -0.8334,0.029 -1.5153,13.6054 -1.5153,32.6142 0,26.8304 0.5649,32.3398 2.5254,31.5709 1.389,-0.5448 22.7537,-10.3223 47.4772,-21.7278 z m 75.2766,-67.5268 v -33.2442 l -8.6066,4.7384 c -5.5971,3.0815 -25.1528,11.73 -42.9314,20.2753 -17.7787,8.5453 -34.4966,14.3889 -37.1508,15.4303 -2.6542,1.0414 -4.3355,0.3838 -3.7363,0.9831 1.3732,1.3731 86.1041,24.5231 90.8896,24.8326 3.2408,0.2096 -0.2948,-0.7613 1.5355,-33.0155 z m 58.6406,-25.3584 c 33.1695,-47.1682 40.0116,-54.5548 37.7616,-54.5548 -0.5415,0 -18.1389,9.8231 -38.602,20.3868 l -35.6174,18.3868 v 34.5943 c 0,31.4233 -1.6005,36.1763 0.8275,33.6361 1.5551,-1.6271 16.4888,-25.2292 35.6303,-52.4492 z m 45.6382,5.9425 33.102,-16.315 v -31.6155 c 0,-27.3322 1.6119,-31.2146 -0.8644,-28.6571 -1.5754,1.627 -15.611,22.9593 -33.6345,47.405 -18.0235,24.4457 -35.6649,45.5831 -36.7586,46.9721 -4.2896,5.4476 3.7337,-0.824 38.1555,-17.7895 z m 126.6079,-63.8581 c -0.2993,-1.21 -68.4556,-22.4965 -72.8181,-22.8792 -0.2778,-0.024 -0.5051,12.5765 -0.5051,30.4463 v 30.4906 l 36.8706,-19.1838 c 20.2788,-10.5511 36.6825,-17.9443 36.4526,-18.8739 z m 29.7124,-42.3123 c 0,-24.4183 1.4303,-29.3022 -0.5254,-28.5174 -5.1092,2.0502 -79.3045,32.5337 -80.1185,33.1485 -0.4629,0.3497 1.6233,-0.8991 2.1918,-0.3307 1.2475,1.2476 72.3371,26.7105 75.9268,27.0158 1.9216,0.1634 2.5253,-7.3238 2.5253,-31.3162 z m 58.5361,-27.751 c 19.0601,-24.2824 34.1635,-42.6412 33.563,-43.2417 -0.6005,-0.6005 -17.25,8.2806 -36.999,17.2914 l -35.9072,14.3832 -0.5589,31.8706 c -0.4865,27.7495 -0.1834,29.4811 2.3443,26.8585 1.5967,-1.6566 18.4977,-22.8795 37.5578,-47.162 z m 37.162,12.8352 33.4398,-17.1726 0.091,-27.7995 c 0.054,-16.3897 1.4091,-27.7626 0.5758,-27.7175 -1.6189,0.088 -71.7086,87.6238 -72.9836,91.2328 -1.0001,2.8313 -2.7535,-0.7202 38.877,-18.5432 z m 90.9919,-42.2391 c 18.7864,-9.0142 33.711,-14.8354 33.1659,-15.3805 -0.8437,-0.8437 -73.8332,-21.2129 -75.7426,-21.2129 -0.3694,0 1.3284,11.6146 1.3284,28.2546 v 30.2546 l 2.5456,-1.7632 c 2.2045,-1.5269 19.9164,-11.1384 38.7027,-20.1526 z m 55.1054,-86.375 c -1.0283,-1.0284 -78.1507,34.2537 -78.1507,35.7525 0,0.6604 17.5009,6.7271 38.8909,13.4815 l 38.8909,12.2808 0.5592,-30.3827 c 0.3075,-16.7104 0.2219,-30.7199 -0.1903,-31.1321 z m 47.463,9.8651 c 16.3071,-24.1283 29.2826,-44.2363 28.8346,-44.6843 -0.448,-0.448 -14.472,5.4381 -31.1644,13.0803 l -30.3499,13.895 v 30.8432 c 0,16.9638 0.6819,30.819 1.5153,30.7894 0.8333,-0.03 14.8573,-19.7952 31.1644,-43.9236 z m 32.4752,9.8193 27.7792,-16.5983 v -28.6577 -28.6578 l -29.2944,43.9136 c -26.3579,39.5115 -32.4736,49.9504 -27.7792,47.4164 0.8333,-0.4498 14.0158,-8.2871 29.2944,-17.4162 z m 82.9204,-40.6953 c 19.7715,-9.181 35.2269,-17.3286 34.3452,-18.1058 -1.7992,-1.5858 -68.9041,-20.1779 -72.829,-20.1779 -1.888,0 -2.5153,7.108 -2.5153,28.5005 0,21.9933 0.5766,28.2693 2.5254,27.4881 1.389,-0.5567 18.7021,-8.524 38.4737,-17.7049 z m 60.0162,-57.4766 c 0,-16.1119 -0.5153,-29.2944 -1.145,-29.2944 -0.6297,0 -18.1306,8.2824 -38.8909,18.4053 -22.9208,11.1764 -36.5556,18.8732 -34.7154,19.5967 4.9693,1.9536 69.4878,20.1612 72.2259,20.3826 1.9136,0.1548 2.5254,-6.8926 2.5254,-29.0902 z m 47.2882,-18.1827 c 16.1677,-22.2234 29.4155,-41.0535 29.4396,-41.8447 0.024,-0.7912 -7.4566,1.7837 -16.6238,5.722 -9.1671,3.9384 -23.2587,9.9393 -31.3147,13.3355 l -14.6472,6.1748 v 29.1827 c 0,17.0858 0.7773,28.9035 1.8751,28.5092 1.0314,-0.3704 15.1033,-18.8562 31.271,-41.0795 z m 35.7705,5.7915 26.0377,-13.4015 v -25.9945 c 0,-14.297 -0.6818,-25.9723 -1.5152,-25.9452 -1.53,0.05 -53.033,75.3748 -53.033,77.5628 0,2.2332 2.5502,1.14 28.5105,-12.2216 z m 67.6091,-33.237 c 15.471,-6.7613 28.7673,-12.8996 29.5472,-13.6409 1.0813,-1.0277 -33.4969,-16.4298 -58.4917,-26.0538 -1.9413,-0.7474 -2.5253,5.152 -2.5253,25.5078 0,14.5641 0.7516,26.4801 1.6703,26.4801 0.9186,0 14.3284,-5.5319 29.7995,-12.2932 z m 45.3018,-48.3159 c 0,-16.40899 -0.7689,-26.26402 -2.0492,-26.26402 -3.5323,0 -55.0087,26.44812 -53.8098,27.64702 2.01,2.01 50.7137,24.6093 53.3336,24.7476 1.8976,0.1002 2.5254,-6.3952 2.5254,-26.1306 z m 38.9704,-15.5129 c 14.2112,-20.64113 25.4158,-37.95202 24.8992,-38.46863 -0.5166,-0.5166 -12.8035,4.37208 -27.3043,10.86374 l -26.3651,11.80301 -0.049,26.76908 c -0.027,14.7229 0.6325,26.7225 1.4659,26.6656 0.8333,-0.057 13.1425,-16.9916 27.3537,-37.6328 z m 29.2149,6.3546 24.7487,-11.64443 v -25.35806 c 0,-14.47538 -0.7532,-24.53438 -1.755,-23.43877 -2.223,2.43121 -49.3956,67.60116 -51.7242,71.45806 -2.1437,3.5509 -2.6175,3.7326 28.7305,-11.0168 z m 65.0429,-29.02063 c 13.8281,-6.41154 25.4006,-12.49027 25.7169,-13.50828 0.3162,-1.01801 -12.1341,-7.00956 -27.6673,-13.31457 l -28.2423,-11.46364 v 25.1007 c 0,18.80238 0.6337,25.06839 2.5254,24.97193 1.389,-0.0708 13.8393,-5.37459 27.6673,-11.78614 z m 44.5586,-45.65427 v -27.2646 l -27.284,13.59781 c -15.0062,7.4788 -27.0072,14.42832 -26.6689,15.44338 0.5735,1.7203 49.1034,25.23606 52.4377,25.40929 0.8334,0.0433 1.5152,-12.19034 1.5152,-27.18588 z m 39.3902,-18.22428 c 13.8349,-19.85605 24.7912,-36.46511 24.3473,-36.90902 -0.4439,-0.44391 -12.6714,4.50424 -27.1722,10.9959 l -26.3651,11.80301 -0.049,27.1731 c -0.034,18.52549 0.6085,26.51527 2.0178,25.10601 1.1369,-1.13691 13.3866,-18.31296 27.2215,-38.169 z m 49.5032,-24.92922 c 0,-13.86532 -0.3723,-24.83086 -0.8274,-24.36787 -3.6088,3.67156 -51.7005,71.10135 -51.7005,72.48968 0,0.98379 11.8188,-3.76898 26.264,-10.56172 l 26.2639,-12.35043 z m 40.8513,5.30579 c 15.2456,-6.96819 27.7388,-13.124 27.7627,-13.67958 0.036,-0.82702 -42.163,-18.79067 -54.9769,-23.40328 -3.2475,-1.169 -3.5355,0.80221 -3.5355,24.19728 0,14.00848 0.6818,25.4891 1.5152,25.51249 0.8334,0.0234 13.9889,-5.65872 29.2345,-12.62691 z m 41.9812,-45.13508 v -27.41488 l -26.0401,13.77782 c -14.3221,7.57781 -26.3682,14.48464 -26.7691,15.34853 -0.6318,1.36161 47.2098,25.21071 51.294,25.57009 0.8334,0.0733 1.5152,-12.20337 1.5152,-27.28156 z"
       id="path4715"
       transform="scale(0.26458333)"
       sodipodi:nodetypes="scssssscssscccsssssssscsssssssssssscsssscsssssssssssssssssssssscssssssssssssscssssssssssscssssssssssssscssssscssssscsssssccssssssssssssssssssscssssssssssssssssssssssscssssssssssssscssssssssssssccssssssscsssssssscssssc" />
    <path
       style="fill:#004455;fill-opacity:1;stroke:#000000;stroke-width:0;stroke-miterlimit:4;stroke-dasharray:none;stroke-dashoffset:0"
       d="m 23.257688,594.19307 c -0.363133,-0.58756 80.932792,-38.77802 88.748422,-41.75218 0.51505,-0.196 0.93645,3.28571 0.93645,4.5033 0,1.66925 -4.40232,3.31469 -10.12937,5.98246 l -6.954382,3.76865 v 11.75178 c 0,6.75452 -0.315053,11.75178 -0.05336,11.75178 0.261697,0 2.912157,-4.8589 6.536682,-10.15086 3.62451,-5.29193 8.88703,-12.26755 9.10744,-12.26755 0.22041,0 0.36143,7.2329 -0.23005,11.45501 l -0.10162,7.75081 -8.69057,4.55123 c -4.089571,2.1417 -4.192716,2.95545 -5.809696,2.94535 l -8.231632,-0.0185 v -12.91267 c 0,-7.18018 0.111252,-11.70458 -0.465444,-11.49794 -4.319305,1.54755 -28.39512,12.77601 -28.406566,13.2126 -0.008,0.30604 3.798642,1.61516 10.365486,4.28704 l 16.730075,6.90558 -16.007241,-0.21051 c -4.516273,-0.0594 -13.322463,-2.40075 -24.706793,-5.7863 -1.496102,-0.4449 0.245781,-2.01609 0.245781,0.60624 l -1e-6,4.86679 h -0.01749 c -4.375246,0 -1.040842,1.05833 -12.691401,0.24432 z"
       id="path4717"
       sodipodi:nodetypes="cssscssssscsccscsscssscscc" />
    <path
       style="fill:#536c67;fill-opacity:1;stroke:#000000;stroke-width:0;stroke-miterlimit:4;stroke-dasharray:none;stroke-dashoffset:0"
       d="m 944.72671,1223.3582 c -0.0293,-11.4949 1.39141,-14.8679 33.18854,-78.7919 35.96325,-72.2996 64.86135,-135.138 93.19385,-202.64846 l 18.0173,-42.93148 h 6.4631 6.4632 l -3.6888,8.58629 c -2.0288,4.72247 -11.1649,26.31448 -20.3024,47.98225 -34.2299,81.1694 -88.88594,197.1061 -121.91138,258.5991 l -11.39278,21.2132 z"
       id="path4719"
       transform="scale(0.26458333)" />
    <path
       style="fill:#536c67;fill-opacity:1;stroke:#000000;stroke-width:0;stroke-miterlimit:4;stroke-dasharray:none;stroke-dashoffset:0"
       d="m 1103.1914,863.12594 c 6.8731,-17.52369 16.9533,-43.4113 22.2718,-57.57869 9.3684,-24.95518 17.9364,-49.24494 23.6841,-49.24494 7.2658,0 0.2679,19.31753 -21.9947,77.02413 -9.4309,24.44569 -18.5162,48.31055 -20.1896,53.03301 -2.7469,7.75168 -10.4552,27.7195 -12.2334,21.97082 l -5.6032,-9.34391 z"
       id="path4721"
       transform="scale(0.26458333)"
       sodipodi:nodetypes="sssssscs" />
    <path
       style="fill:#536c67;fill-opacity:1;stroke:#000000;stroke-width:0;stroke-miterlimit:4;stroke-dasharray:none;stroke-dashoffset:0"
       d="m 1137.2175,774.23252 c 0.585,-1.94455 9.3183,-26.94913 19.4072,-55.56577 30.9251,-87.71702 71.4422,-219.47236 93.1896,-303.03839 2.5302,-9.72271 5.1446,-17.65745 5.8097,-17.63274 0.6651,0.0247 3.1447,1.6157 5.5104,3.53553 l 4.3012,3.49061 -12.6153,45.45687 c -29.6642,106.88994 -64.6681,217.41671 -98.0541,309.61175 -6.124,16.91149 -6.6661,17.67767 -12.5069,17.67767 -4.8731,0 -5.8908,-0.71365 -5.0418,-3.53553 z"
       id="path4723"
       transform="scale(0.26458333)" />
    <path
       style="fill:#536c67;fill-opacity:1;stroke:#000000;stroke-width:0;stroke-miterlimit:4;stroke-dasharray:none;stroke-dashoffset:0"
       d="m 102.22885,1653.0278 v -7.6136 l 25.75889,-12.8041 c 338.40758,-168.215 619.18465,-538.833 800.67765,-1056.87256 l 25.53643,-78.16259 -3.75518,40.60348 c -0.56726,6.13359 -13.48682,36.87843 -39.51718,116.35101 -76.137,232.45178 -199.42321,437.07846 -323.57791,599.02046 -45.27713,59.0576 -79.54963,98.4347 -132.50831,152.2447 -98.11693,99.694 -190.16487,169.8184 -304.12707,231.6913 -22.61061,12.2759 -44.94485,23.1555 -47.53478,23.1555 -0.5239,0 -0.95254,-3.4261 -0.95254,-7.6136 z"
       id="path4725"
       transform="scale(0.26458333)"
       sodipodi:nodetypes="scsscsssssss" />
    <path
       style="fill:#22280b;fill-opacity:1;stroke:#000000;stroke-width:0;stroke-miterlimit:4;stroke-dasharray:none;stroke-dashoffset:0"
       d=""
       id="path4727"
       transform="scale(0.26458333)" />
    <path
       style="fill:#22280b;fill-opacity:1;stroke:#000000;stroke-width:0;stroke-miterlimit:4;stroke-dasharray:none;stroke-dashoffset:0"
       d=""
       id="path4729"
       transform="scale(0.26458333)" />
    <path
       style="fill:#536c67;fill-opacity:1;stroke:#000000;stroke-width:0;stroke-miterlimit:4;stroke-dasharray:none;stroke-dashoffset:0"
       d="m 817.77765,1421.8833 c 35.56472,-54.137 78.23402,-121.7916 111.47961,-183.2079 l 31.63286,-58.6659 -12.01774,44.633 c -2.73212,10.1468 -7.33197,16.6936 -15.97048,32.6545 -25.23648,46.6281 -59.53711,108.0896 -92.10976,159.3394 -21.30496,33.5213 -20.36704,36.8026 -29.40104,39.8808 -5.14263,1.7522 -17.6128,3.1859 -17.9337,3.1859 -0.3209,0 12.82321,-20.3189 24.32025,-37.8198 z"
       id="path4731"
       transform="scale(0.26458333)"
       sodipodi:nodetypes="sscssssss" />
    <path
       style="fill:#22280b;fill-opacity:1;stroke:#000000;stroke-width:0;stroke-miterlimit:4;stroke-dasharray:none;stroke-dashoffset:0"
       d=""
       id="path4733"
       transform="scale(0.26458333)" />
    <path
       style="fill:#22280b;fill-opacity:1;stroke:#000000;stroke-width:0;stroke-miterlimit:4;stroke-dasharray:none;stroke-dashoffset:0"
       d=""
       id="path4735"
       transform="scale(0.26458333)" />
    <path
       style="fill:#22280b;fill-opacity:1;stroke:#000000;stroke-width:0;stroke-miterlimit:4;stroke-dasharray:none;stroke-dashoffset:0"
       d=""
       id="path4737"
       transform="scale(0.26458333)" />
    <path
       style="fill:#536c67;fill-opacity:1;stroke:#000000;stroke-width:0;stroke-miterlimit:4;stroke-dasharray:none;stroke-dashoffset:0"
       d="m 761.69456,1505.2384 c 1.24152,-1.3358 3.33081,-4.2032 4.64286,-6.3719 1.31205,-2.1687 7.75267,-8.9762 13.45698,-18.1308 l 15.07143,-22.1876 10.29268,-5.6407 c 5.26578,-2.8858 12.5752,-1.5466 12.9205,-1.4315 0.49366,0.1646 -31.40184,48.3807 -35.9989,54.4353 -0.85958,1.1321 -7.84149,-2.4881 -19.57142,1.4008 -0.58929,0.1953 -2.0557,-0.7378 -0.81413,-2.0736 z"
       id="path4739"
       transform="scale(0.26458333)"
       sodipodi:nodetypes="ssscsssss" />
    <path
       style="fill:#22280b;fill-opacity:1;stroke:#000000;stroke-width:0;stroke-miterlimit:4;stroke-dasharray:none;stroke-dashoffset:0"
       d=""
       id="path4741"
       transform="scale(0.26458333)" />
    <path
       style="fill:#536c67;fill-opacity:1;stroke:#000000;stroke-width:0;stroke-miterlimit:4;stroke-dasharray:none;stroke-dashoffset:0"
       d="m 1276.9992,306.19536 c 0,-0.72614 4.4492,-20.494 7.923,-36.07142 6.1219,-27.4524 16.6917,-79.26645 18.6563,-91.45464 0.531,-3.29406 1.8711,-6.74084 2.978,-7.65953 2.9646,-2.46038 9.0104,-0.43182 9.9573,3.341 1.0131,4.03647 -17.741,96.40983 -26.4464,131.09513 -0.7649,3.04767 0.2781,0.46259 -5.1874,0.46259 -3.4506,0 -7.8808,1.01302 -7.8808,0.28687 z"
       id="path4743"
       transform="scale(0.26458333)"
       sodipodi:nodetypes="ssssssss" />
    <path
       style="fill:#536c67;fill-opacity:0;stroke:#000000;stroke-width:0;stroke-miterlimit:4;stroke-dasharray:none;stroke-dashoffset:0"
       d="m 944.7425,544.75246 8.34545,-42.85714 v 0 c 0,0 64.59175,-221.49757 81.13815,-306.51388 2.8593,-14.69137 4.4631,-16.51869 10.3288,-11.7689 l 3.267,2.64549 -4.5425,22.05737 c -19.0663,92.58182 -52.95559,217.29069 -85.77115,315.6288 l -16.63297,43.85714 z"
       id="path4745"
       transform="scale(0.26458333)"
       sodipodi:nodetypes="ccssscsscc" />
    <path
       style="fill:#536c67;fill-opacity:1;stroke:#000000;stroke-width:0;stroke-miterlimit:4;stroke-dasharray:none;stroke-dashoffset:0"
       d="m 1260.486,405.61123 -11.1237,12.54191 18.0898,-73.1759 c 4.5073,-18.23253 8.5352,-34.94375 9.0795,-37.10447 0.8953,-3.55398 1.6001,-3.92857 7.3911,-3.92857 3.5207,0 6.4013,0.30277 6.4013,0.67282 0,2.23724 -29.0591,116.78141 -29.8032,117.53259 -0.5011,0.50584 2.2211,-19.08189 -0.035,-16.53838 z"
       id="path4747"
       transform="scale(0.26458333)"
       sodipodi:nodetypes="scssssss" />
    <path
       style="fill:#22280b;fill-opacity:1;stroke:#000000;stroke-width:0;stroke-miterlimit:4;stroke-dasharray:none;stroke-dashoffset:0"
       d=""
       id="path4749"
       transform="scale(0.26458333)" />
    <path
       style="fill:#00222b;fill-opacity:1;stroke:#000000;stroke-width:0;stroke-miterlimit:4;stroke-dasharray:none;stroke-dashoffset:0"
       d="m 1260.6044,397.69727 c -4.3489,-2.80013 -4.6533,-3.47686 -3.8763,-8.61681 1.2166,-8.04829 1.7216,-8.3289 7.7774,-4.32139 5.4284,3.59238 5.4594,3.6663 3.8356,9.16569 -0.9003,3.04925 -1.9475,5.82922 -2.327,6.17769 -0.3796,0.34848 -2.8139,-0.73386 -5.4097,-2.40518 z"
       id="path4751"
       transform="scale(0.26458333)" />
    <path
       style="fill:#22280b;fill-opacity:1;stroke:#000000;stroke-width:0;stroke-miterlimit:4;stroke-dasharray:none;stroke-dashoffset:0"
       d=""
       id="path4753"
       transform="scale(0.26458333)" />
    <path
       style="fill:#22280b;fill-opacity:1;stroke:#000000;stroke-width:0;stroke-miterlimit:4;stroke-dasharray:none;stroke-dashoffset:0"
       d=""
       id="path4755"
       transform="scale(0.26458333)" />
    <path
       style="fill:#536c67;fill-opacity:1;stroke:#000000;stroke-width:0;stroke-miterlimit:4;stroke-dasharray:none;stroke-dashoffset:0"
       d="m 1237.8391,383.09572 c -22.2597,-14.93093 -37.3989,-25.34676 -70.9529,-48.81601 -31.3217,-21.9079 -37.5449,-26.18115 -42.3317,-29.06761 l -2.8726,-1.73222 13.8173,-10e-4 13.8172,-10e-4 6.3858,4.37874 c 3.5122,2.40831 17.3028,12.14637 30.6459,21.64013 25.5635,18.18881 49.2092,34.78707 62.4867,43.86307 4.3753,2.99072 31.9497,21.59391 31.9433,21.78486 -0.021,0.61176 -9.4241,9.80096 -9.6036,9.96457 -0.095,0.0866 -24.9959,-16.4192 -33.3354,-22.01294 z"
       id="path4757"
       transform="scale(0.26458333)"
       sodipodi:nodetypes="csscccssscscc" />
    <path
       style="fill:#536c67;fill-opacity:1;stroke:#000000;stroke-width:0;stroke-miterlimit:4;stroke-dasharray:none;stroke-dashoffset:0"
       d="m 1327.753,440.73465 c -28.8175,-17.96693 -51.919,-32.58037 -59.0602,-37.35992 -0.6066,-0.40602 2.6562,-14.03448 3.3601,-14.03448 0.2259,0 5.4641,3.37183 11.6404,7.49296 11.134,7.42904 30.5678,20.07119 43.9334,28.57963 l 6.9448,4.42101 v 7.5324 c 0,4.14282 -0.057,7.51658 -0.1262,7.49726 -0.07,-0.0193 -3.081,-1.87731 -6.6923,-4.12886 z"
       id="path4759"
       transform="scale(0.26458333)" />
    <path
       style="fill:#536c67;fill-opacity:1;stroke:#000000;stroke-width:0;stroke-miterlimit:4;stroke-dasharray:none;stroke-dashoffset:0"
       d="m 1595.3204,583.11246 c -54.0535,-23.46253 -107.6212,-51.39561 -157.0787,-78.46062 l -6.3134,-3.45496 -0.1414,-6.43084 c -0.078,-3.53696 -0.023,-6.43084 0.1227,-6.43084 0.1452,0 8.391,4.51413 18.3241,10.03141 57.1736,31.75687 112.9736,59.94264 168.8253,85.27723 7.6393,3.46521 13.9843,6.39407 14.1001,6.50858 0.1157,0.1145 5.2291,4.20782 -0.8592,4.20736 l -11.0696,-8.3e-4 z"
       id="path4763"
       transform="scale(0.26458333)"
       sodipodi:nodetypes="ssccssssscs" />
    <path
       style="fill:#22280b;fill-opacity:1;stroke:#000000;stroke-width:0;stroke-miterlimit:4;stroke-dasharray:none;stroke-dashoffset:0"
       d=""
       id="path4765"
       transform="scale(0.26458333)" />
    <path
       style="fill:#22280b;fill-opacity:1;stroke:#000000;stroke-width:0;stroke-miterlimit:4;stroke-dasharray:none;stroke-dashoffset:0"
       d=""
       id="path4767"
       transform="scale(0.26458333)" />
    <path
       style="fill:#536c67;fill-opacity:1;stroke:#000000;stroke-width:0;stroke-miterlimit:4;stroke-dasharray:none;stroke-dashoffset:0"
       d="m 1785.6722,659.42097 c -23.2505,-8.23964 -32.0992,-11.44219 -47.4771,-17.18295 -33.0373,-12.33322 -65.7019,-25.44992 -98.4899,-39.54936 -21.5431,-9.26393 -27.2629,-11.78669 -27.0978,-11.95178 0.071,-0.0708 5.0035,-0.14648 10.9616,-0.16812 l 10.8329,-0.0394 8.0812,3.59479 c 30.609,13.61583 94.1957,39.42132 128.656,52.38674 12.0268,4.52499 0.3584,-3.31069 13.3152,4.54422 7.2209,4.37754 52.3513,29.69018 53.8453,30.58364 1.4941,0.89345 -43.6244,-19.39082 -44.0411,-19.40949 -0.4167,-0.0187 -4.2805,-1.28242 -8.5863,-2.80833 z"
       id="path4769"
       transform="scale(0.26458333)"
       sodipodi:nodetypes="ssssscsssssss" />
    <path
       style="fill:#536c67;fill-opacity:1;stroke:#000000;stroke-width:0;stroke-miterlimit:4;stroke-dasharray:none;stroke-dashoffset:0"
       d="m 1797.4108,653.79163 c -8.7504,-3.00475 133.3331,68.49176 125.3717,65.22171 l -83.7185,-36.38653 -86.293,-48.13828 c -60.1644,-33.56252 -112.1257,-77.67404 -162.3108,-121.90936 -56.155,-49.49749 -109.6281,-106.10011 -146.6396,-155.22165 l -14.6618,-16.18719 0.012,-16 14.0124,18 15.8757,19.77213 c 36.7993,45.83114 84.8841,93.2585 135.171,137.37579 57.5947,50.52849 116.2099,97.55497 183.9268,138.22742 10.6421,6.39189 96.4567,55.25409 100.2798,57.19018 2.1778,1.10285 -55.3417,-32.40704 -56.4847,-32.45471 -0.3473,-0.0145 -15.7908,-6.48477 -24.5413,-9.48951 z"
       id="path4771"
       transform="scale(0.26458333)"
       sodipodi:nodetypes="sscssscccssssss" />
    <path
       style="fill:#22280b;fill-opacity:1;stroke:#000000;stroke-width:0;stroke-miterlimit:4;stroke-dasharray:none;stroke-dashoffset:0"
       d=""
       id="path4779"
       transform="scale(0.26458333)" />
    <path
       style="fill:none;stroke:#000000;stroke-width:0.264583px;stroke-linecap:butt;stroke-linejoin:miter;stroke-opacity:1"
       d="m 841.01322,151.92464 0.0945,1.98438"
       id="path4791" />
    <path
       style="fill:#22280b;fill-opacity:1;stroke:#000000;stroke-width:0;stroke-miterlimit:4;stroke-dasharray:none;stroke-dashoffset:0"
       d="m 2921.9049,682.48476 0.1037,-2.9009 14.2858,-4.72765 c 77.6029,-25.68152 153.4996,-56.64928 230.5357,-94.06433 12.2905,-5.9693 11.3241,-5.8317 11.3929,-1.62214 l 0.036,2.17693 -6.1607,2.96892 c -28.5214,13.7448 -40.0589,19.16402 -57.5893,27.04995 -53.4803,24.0578 -103.7032,43.94717 -158.9285,62.93925 -13.1351,4.51717 -34.1576,11.08088 -34.6995,11.08088 -0.1256,0 0.9673,-1.30541 1.0243,-2.90091 z"
       id="path4795"
       transform="scale(0.26458333)"
       sodipodi:nodetypes="ccssscsssssc" />
    <path
       style="fill:#22280b;fill-opacity:1;stroke:#000000;stroke-width:0;stroke-miterlimit:4;stroke-dasharray:none;stroke-dashoffset:0"
       d="m 2727.5051,732.71561 v -2.72363 l 8.3928,-1.61769 c 47.5964,-9.17403 123.6092,-28.77298 174.6468,-45.03046 l 11.4639,-3.75997 0.6233,2.86268 c 0.2917,1.33985 1.575,1.8412 1.3868,2.02917 -0.5369,0.53692 -30.7567,9.78685 -50.7993,15.58649 -42.511,12.30119 -88.1517,23.57429 -130.3572,32.19777 -6.6785,1.36457 -12.866,2.63814 -13.75,2.83016 -1.4467,0.31427 -1.6071,0.0772 -1.6071,-2.37452 z"
       id="path4799"
       transform="scale(0.26458333)"
       sodipodi:nodetypes="scsscssssss" />
    <path
       style="fill:#22280b;fill-opacity:1;stroke:#000000;stroke-width:0;stroke-miterlimit:4;stroke-dasharray:none;stroke-dashoffset:0"
       d="m 2185.6634,753.5925 c -91.8603,-11.68374 -178.6161,-28.93007 -266.3857,-52.95527 -34.5238,-9.45021 -77.0403,-22.92842 -95.9322,-32.26663 -9.7056,-4.79744 -1.5376,-4.83151 -1.4045,-4.9646 0.1331,-0.13309 36.5562,12.32224 46.7179,15.45628 108.9354,33.59731 223.1032,58.1658 326.6902,70.30247 l 13.9286,1.63193 0.2217,2.64822 c 0.221,2.64004 0.2133,2.64801 -2.5,2.58169 -1.4969,-0.0366 -11.0981,-1.13193 -21.336,-2.43409 z"
       id="path4805"
       transform="scale(0.26458333)"
       sodipodi:nodetypes="sssssscsss" />
    <path
       style="fill:#22280b;fill-opacity:1;stroke:#000000;stroke-width:0;stroke-miterlimit:4;stroke-dasharray:none;stroke-dashoffset:0"
       d=""
       id="path4807"
       transform="scale(0.26458333)" />
    <path
       style="fill:#22280b;fill-opacity:1;stroke:#000000;stroke-width:0;stroke-miterlimit:4;stroke-dasharray:none;stroke-dashoffset:0"
       d="m 2265.4576,761.68995 c -0.4862,-0.0488 -3.725,-0.31821 -7.1974,-0.59877 -9.668,-0.78113 -24.4456,-2.15006 -35.3553,-3.27516 -15.2918,-1.57702 -15.5533,-1.60899 -14.3947,-1.75976 l 1.0102,-0.13146 -0.04,-2.55877 c -0.035,-2.26322 0.01,-2.54819 0.3788,-2.46715 2.254,0.49338 33.6171,3.51425 57.4922,5.53763 l 1.7678,0.14981 -0.079,2.63657 -0.079,2.63656 -1.3096,-0.0404 c -0.7202,-0.0222 -1.7073,-0.0803 -2.1934,-0.12908 z"
       id="path4811"
       transform="scale(0.26458333)" />
    <path
       style="fill:none;stroke:#000000;stroke-width:0.264583px;stroke-linecap:butt;stroke-linejoin:miter;stroke-opacity:1"
       d="m -1.3545665,562.01788 1.06438616,6.38233"
       id="path4813" />
    <path
       style="fill:#536c67;fill-opacity:1;stroke:#000000;stroke-width:0;stroke-miterlimit:4;stroke-dasharray:none;stroke-dashoffset:0"
       d="m -6.7850566,1697.5664 -0.6270326,-7.5761 27.7246222,-10.4242 c 15.248542,-5.7333 38.431543,-15.119 51.51778,-20.8572 13.086237,-5.7381 42.001107,-17.9501 43.266537,-18.4951 1.44263,-0.6214 6.83892,3.6651 3.07775,7.1562 l -16.39563,15.2184 -25.901816,11.3287 c -27.482877,12.0202 -76.71600298,31.2255 -80.0470804,31.2255 -1.0934538,0 -2.2702623,-3.4093 -2.6151302,-7.5762 z"
       id="path4817"
       transform="scale(0.26458333)"
       sodipodi:nodetypes="scsssscsss" />
    <path
       style="fill:#22280b;fill-opacity:1;stroke:#000000;stroke-width:0;stroke-miterlimit:4;stroke-dasharray:none;stroke-dashoffset:0"
       d=""
       id="path4819"
       transform="scale(0.26458333)" />
    <path
       style="fill:#536c67;fill-opacity:1;stroke:#000000;stroke-width:0;stroke-miterlimit:4;stroke-dasharray:none;stroke-dashoffset:0"
       d="m -2.3171069,2139.0783 1.1974855,-18.1943 31.4763194,-11.3913 c 37.400956,-13.5354 96.346392,-40.3778 136.467222,-60.7024 169.3834,-85.8073 340.66828,-227.2041 486.19451,-401.3568 35.27283,-42.2114 92.08464,-116.6677 100.81418,-130.5759 4.49497,-7.1615 10.18575,-14.3707 16.85728,-16.9186 4.88215,-1.8645 13.2933,1.0267 13.80258,1.536 1.95921,1.9592 -59.42804,84.1899 -97.25239,130.2976 -131.04786,159.7467 -253.7346,275.3421 -381.11874,359.0898 -85.73902,56.3684 -191.84097,111.3749 -264.035954,139.8613 -44.501268,17.559 -45.3436891,21.0829 -44.4024929,8.3546 z"
       id="path4821"
       transform="scale(0.26458333)"
       sodipodi:nodetypes="scssssssssss" />
    <path
       style="fill:#536c67;fill-opacity:0.992157;stroke:#ffffff;stroke-width:0;stroke-miterlimit:4;stroke-dasharray:none;stroke-dashoffset:0"
       d="M 970.56225,459.87462 V 449.4644 l 2.52112,-10.091 c 14.7025,-58.84795 39.28673,-140.33906 53.98233,-205.50523 4.5173,-20.03157 10.6653,-44.97599 11.58,-46.98346 0.9061,-1.9886 1.9914,-1.35705 3.8383,2.23346 1.6442,3.19645 1.6674,3.33238 1.411,8.25 -0.8384,16.0782 -16.0303,75.95363 -44.0847,173.75 -10.72398,37.38331 -28.68205,98.53041 -29.06272,98.95833 -0.10193,0.11458 -0.18533,-4.47626 -0.18533,-10.20188 z"
       id="path6665"
       transform="scale(0.26458333)"
       sodipodi:nodetypes="scssssssss" />
    <path
       style="fill:#536c67;fill-opacity:0.992157;stroke:#ffffff;stroke-width:0;stroke-miterlimit:4;stroke-dasharray:none;stroke-dashoffset:0"
       d="m 947.56225,546.04815 c 0,-0.13018 -2.66855,-3.35826 -0.74466,-16.68016 3.39967,-23.54098 7.80344,-33.16843 9.97611,-38.99982 1.22952,-3.3 7.54815,-22.7125 10.16639,-30.125 2.55207,-7.22517 2.10791,-7.15 2.47705,-8.25 0.60502,-1.80288 0.0856,13.67367 0.0856,13.67367 l 0.2895,6.67368 -4.71354,16.95132 c -2.01329,7.2404 -6.80272,23.36383 -10.42559,35.32633 -5.81923,19.21473 -7.11087,22.37702 -7.11087,21.42998 z"
       id="path6667"
       transform="scale(0.26458333)"
       sodipodi:nodetypes="sssssccssss" />
    <path
       style="fill:#536c67;fill-opacity:0.992157;stroke:#ffffff;stroke-width:0;stroke-miterlimit:4;stroke-dasharray:none;stroke-dashoffset:0"
       d="m 2487.0699,848.78115 c -12.2824,-0.16312 -37.8794,-1.09084 -53.5,-1.939 -143.2484,-7.77806 -278.4664,-34.15341 -406.25,-79.24225 -9.2125,-3.25066 -17.1438,-6.06293 -17.625,-6.2495 -0.7381,-0.28615 -0.875,-1.00416 -0.875,-4.58922 0,-3.84827 0.083,-4.21675 0.875,-3.89828 3.6971,1.48611 29.4466,10.50257 40.625,14.22525 116.1716,38.68806 237.0538,62.0581 364.75,70.51675 29.6511,1.96411 57.2101,2.78093 115.25,3.41591 l 31.75,0.34736 0.146,3.875 0.146,3.875 -33.396,-0.11206 c -18.3678,-0.0616 -37.221,-0.16287 -41.896,-0.22496 z"
       id="path6669"
       transform="scale(0.26458333)" />
    <path
       style="fill:#536c67;fill-opacity:0.992157;stroke:#ffffff;stroke-width:0;stroke-miterlimit:4;stroke-dasharray:none;stroke-dashoffset:0"
       d="m 2002.0699,758.5496 c -32.8999,-12.9331 -47.9441,-19.39449 -73.75,-31.67515 -20.0665,-9.54931 -38.9837,-19.22244 -68.75,-35.15445 -24.0797,-12.88836 -28.9547,-15.64063 -30.0151,-16.94564 -0.7798,-0.95973 -13.0798,-5.37348 -13.0798,-5.37348 0,0 -13.1407,-4.73332 -18.6082,-7.82848 l -6.5435,-3.70423 v -2.125 c -9e-4,-1.16875 0.167,-2.12489 0.3733,-2.12475 0.2062,1.4e-4 1.5,0.42238 2.875,0.93832 4.7729,1.79092 4.9786,1.62615 1,-0.80088 -2.7706,-1.69009 -4.0491,-2.77779 -4.1598,-3.53888 -0.088,-0.60435 -0.029,-1.09881 0.1317,-1.09881 0.4782,0 16.5532,8.51841 16.5532,8.51841 l -5.25,-4.50104 c 0,0 30.0624,14.21373 41.4749,18.01526 106.3588,35.42842 237.9165,64.87965 347.25,77.73728 8.525,1.00254 18.0062,2.02212 18.625,2.26573 0.9067,0.35699 2.2679,1.30463 1.125,2.45364 v 2.01072 l -4.375,-0.002 c -7.0247,-0.003 -59.1034,-7.179 -94.375,-13.00013 -80.6557,-13.31117 -170.6769,-34.18899 -234,-54.26952 -4.95,-1.5697 -9.7875,-2.90926 -10.75,-2.97679 -0.9625,-0.0675 -4.7875,-1.08265 -8.5,-2.25582 -3.7125,-1.17318 -7.0875,-2.23451 -7.5,-2.35851 -1.1056,-0.33233 2.8459,1.8887 22.1406,12.44467 31.1789,17.05777 73.726,35.96259 126.9844,56.42257 l 10.8125,3.89113 -1.3125,3.9272 c -0.7282,2.17899 0.7687,4.40401 0.5625,4.37568 -0.2063,-0.0283 -6.1875,-2.18601 -8.9375,-3.26705 z"
       id="path6671"
       transform="scale(0.26458333)"
       sodipodi:nodetypes="cssscsccsssssccsssscsssssssscsscc" />
    <path
       style="fill:#536c67;fill-opacity:0.992157;stroke:#ffffff;stroke-width:0;stroke-miterlimit:4;stroke-dasharray:none;stroke-dashoffset:0"
       d="m 2254.5699,760.56382 c -14.995,-1.33743 -41.2092,-3.93352 -43.125,-4.27084 -1.5751,-0.27732 -1.625,-0.36184 -1.625,-2.75311 v -2.46701 l 1.625,0.28028 c 2.0767,0.35821 22.2299,2.32304 42,4.0948 l 15.375,1.37787 v 2.39618 2.39618 l -1.875,-0.0589 c -1.0313,-0.0324 -6.6,-0.48034 -12.375,-0.99543 z"
       id="path6673"
       transform="scale(0.26458333)" />
    <path
       style="fill:#536c67;fill-opacity:0.992157;stroke:#ffffff;stroke-width:0;stroke-miterlimit:4;stroke-dasharray:none;stroke-dashoffset:0"
       d="m 618.34974,202.63225 c -5.17406,-0.21205 -10.66303,-0.50587 -15.18047,-0.81259 l -3.27422,-0.22231 v -0.63045 c 0,-0.34674 0.048,-0.66014 0.10676,-0.69643 0.0587,-0.0363 1.17496,0.0162 2.48047,0.11661 2.66377,0.20492 10.68919,0.65651 15.40444,0.86679 8.31209,0.3707 28.62535,0.29389 37.70312,-0.14255 7.39301,-0.35545 19.75797,-1.22962 21.47115,-1.51796 0.37065,-0.0624 7.36214,-0.0292 6.68073,0.10103 l -1.09823,0.6926 -6.30891,0.62147 c -7.29096,0.71821 -13.08063,1.05123 -23.39057,1.57525 -4.48903,0.22815 -29.36052,0.26309 -34.59427,0.0486 z"
       id="path6675"
       sodipodi:nodetypes="sscssssssscssss" />
    <path
       style="fill:#536c67;fill-opacity:0.992157;stroke:#ffffff;stroke-width:0;stroke-miterlimit:4;stroke-dasharray:none;stroke-dashoffset:0"
       d="m 2558.591,845.31059 -4,-3.69242 7.4789,-0.25 87.2711,-5.98477 19.75,-1.5 c 0,0 0.1375,0.38209 5.5,-0.0404 0,0 12.5625,-0.84876 16,-0.94726 3.4375,-0.0985 14.2375,-1.11515 24,-2.2592 93.3121,-10.93523 170.2056,-25.66803 288.6551,-55.3064 76.4537,-19.1302 134.8067,-36.56355 173.9699,-51.97464 0.7923,-0.31175 0.875,0.0628 0.875,3.95917 0,2.36693 -0.1278,4.3035 -0.284,4.3035 -0.1561,0 -9.8874,3.13105 -21.625,6.95789 -67.2687,21.93187 -114.2068,35.29962 -172.841,49.2244 -58.5101,13.89531 -161.4633,34.38351 -208.9933,41.59072 -33.9309,5.14511 -56.9693,8.77025 -95.8577,12.41024 -25.8586,2.42039 -44.5441,3.17085 -52.649,3.57338 -3.3,0.16389 -9.5125,0.61703 -13.5,1.00698 -3.9875,0.38995 -15.2125,1.05111 -25.25,1.46925 -10.0375,0.41813 -19.6562,0.84838 -21.375,0.95611 l -3.125,0.19587 z"
       id="path6677"
       transform="scale(0.26458333)"
       sodipodi:nodetypes="cccccssssssssssssssscc" />
    <path
       style="fill:#536c67;fill-opacity:0.992157;stroke:#ffffff;stroke-width:0;stroke-miterlimit:4;stroke-dasharray:none;stroke-dashoffset:0"
       d="m 2721.8704,736.26446 c -0.1537,-0.40044 3.0229,-3.79657 3.7206,-4.36905 l 2,-1.64097 10.875,-2.12501 c 39.725,-7.7624 104.4676,-24.12062 153.625,-38.81577 16.6565,-4.97929 63.0238,-20.35277 83.5,-27.68515 64.6551,-23.1525 125.2937,-48.67277 191.1812,-80.46026 5.1871,-2.50254 9.8682,-4.55008 10.4024,-4.55008 0.8442,0 0.9513,0.30399 0.8188,2.3249 l -0.1524,2.3249 -13,6.22293 c -53.863,25.78351 -93.9505,43.27262 -141.5,61.73266 -26.1369,10.14707 -64.7181,23.98441 -84,30.12698 -5.775,1.83972 -14.6625,4.6942 -19.75,6.34328 -51.8671,16.81239 -119.3742,34.47438 -177.3456,46.39922 -11.773,2.42174 -20.1416,4.77953 -20.375,4.17142 z"
       id="path6679"
       transform="scale(0.26458333)"
       sodipodi:nodetypes="sscsssssscssssss" />
    <path
       style="fill:#536c67;fill-opacity:0.992157;stroke:#ffffff;stroke-width:0;stroke-miterlimit:4;stroke-dasharray:none;stroke-dashoffset:0"
       d="m 678.01886,200.20565 v -0.64437 l 0.95912,-0.0899 c 11.26889,-1.05643 27.19861,-3.33469 39.22448,-5.60988 l 3.34036,-0.63197 v 0.67765 0.67766 l -3.27422,0.61722 c -11.99864,2.26188 -24.47361,4.08353 -36.39727,5.3149 -4.24011,0.43788 -3.85247,0.4692 -3.85247,-0.3113 z"
       id="path6681" />
  </g>
  <g
     inkscape:groupmode="layer"
     id="layer5"
     inkscape:label="tengah pilar"
     style="display:none">
    <path
       style="fill:none;stroke:#000000;stroke-width:0.264583px;stroke-linecap:butt;stroke-linejoin:miter;stroke-opacity:1"
       d="M 277.1585,206.0648 V 96.21703 c 0,0 11.22532,-7.483547 10.95804,-16.036174"
       id="path1043" />
    <path
       style="fill:none;stroke:#000000;stroke-width:0.264583px;stroke-linecap:butt;stroke-linejoin:miter;stroke-opacity:1"
       d="M 352.92606,205.85487 V 96.007029 c 0,0 -11.22532,-7.483546 -10.95804,-16.036173"
       id="path1043-1" />
    <path
       style="fill:none;stroke:#000000;stroke-width:0.264583px;stroke-linecap:butt;stroke-linejoin:miter;stroke-opacity:1"
       d="M 276.76061,363.19637 V 253.34833 c 0,0 11.22532,-7.48359 10.95804,-16.03626"
       id="path1043-8" />
    <path
       style="fill:none;stroke:#000000;stroke-width:0.264583px;stroke-linecap:butt;stroke-linejoin:miter;stroke-opacity:1"
       d="M 353.14835,362.35871 V 252.51094 c 0,0 -11.22532,-7.48355 -10.95804,-16.03618"
       id="path1043-0" />
    <path
       style="fill:none;stroke:#000000;stroke-width:0.264583px;stroke-linecap:butt;stroke-linejoin:miter;stroke-opacity:1"
       d="m 353.14834,362.3587 -0.0185,233.11781"
       id="path1101" />
    <path
       style="display:inline;fill:none;stroke:#000000;stroke-width:0.242078px;stroke-linecap:butt;stroke-linejoin:miter;stroke-opacity:1"
       d="m 277.15215,507.02724 -0.041,87.99991"
       id="path1101-7" />
    <path
       style="fill:none;stroke:#000000;stroke-width:0.246177px;stroke-linecap:butt;stroke-linejoin:miter;stroke-opacity:1"
       d="m 308.89798,491.6721 44.49969,0.057"
       id="path1120" />
    <path
       style="display:inline;fill:none;stroke:#000000;stroke-width:0.236216px;stroke-linecap:butt;stroke-linejoin:miter;stroke-opacity:1"
       d="m 249.689,520.02771 -0.0471,74.99983"
       id="path1101-7-3" />
    <path
       style="fill:none;stroke:#000000;stroke-width:0.264583px;stroke-linecap:butt;stroke-linejoin:miter;stroke-opacity:1"
       d="m 249.6419,595.02754 h 27.46924"
       id="path1407" />
  </g>
  <g
     inkscape:groupmode="layer"
     id="layer7"
     inkscape:label="kabel kanan"
     style="display:none" />
</svg>
