<?xml version="1.0" encoding="UTF-8" standalone="no"?>
<svg
   xmlns:dc="http://purl.org/dc/elements/1.1/"
   xmlns:cc="http://creativecommons.org/ns#"
   xmlns:rdf="http://www.w3.org/1999/02/22-rdf-syntax-ns#"
   xmlns:svg="http://www.w3.org/2000/svg"
   xmlns="http://www.w3.org/2000/svg"
   xmlns:sodipodi="http://sodipodi.sourceforge.net/DTD/sodipodi-0.dtd"
   xmlns:inkscape="http://www.inkscape.org/namespaces/inkscape"
   width="330mm"
   height="297mm"
   viewBox="0 0 330 297"
   version="1.1"
   id="svg5837"
   inkscape:version="1.0.1 (3bc2e813f5, 2020-09-07)"
   sodipodi:docname="tampakdepan.svg"
   inkscape:export-filename="D:\pitut\design jembatan\tampak depann.png"
   inkscape:export-xdpi="96"
   inkscape:export-ydpi="96">
  <defs
     id="defs5831" />
  <sodipodi:namedview
     id="base"
     pagecolor="#ffffff"
     bordercolor="#666666"
     borderopacity="1.0"
     inkscape:pageopacity="0.0"
     inkscape:pageshadow="2"
     inkscape:zoom="0.35355339"
     inkscape:cx="827.9408"
     inkscape:cy="662.24335"
     inkscape:document-units="mm"
     inkscape:current-layer="layer32"
     inkscape:document-rotation="0"
     showgrid="false"
     inkscape:showpageshadow="false"
     units="mm"
     inkscape:window-width="1366"
     inkscape:window-height="705"
     inkscape:window-x="-8"
     inkscape:window-y="-8"
     inkscape:window-maximized="1" />
  <metadata
     id="metadata5834">
    <rdf:RDF>
      <cc:Work
         rdf:about="">
        <dc:format>image/svg+xml</dc:format>
        <dc:type
           rdf:resource="http://purl.org/dc/dcmitype/StillImage" />
        <dc:title></dc:title>
      </cc:Work>
    </rdf:RDF>
  </metadata>
  <g
     inkscape:groupmode="layer"
     id="layer32"
     inkscape:label="background">
    <rect
       style="fill:#ffffff;fill-opacity:0.992157;stroke:#ffffff;stroke-width:0;stroke-miterlimit:4;stroke-dasharray:none;stroke-dashoffset:0"
       id="rect8297"
       width="372.6806"
       height="327.77933"
       x="-20.953932"
       y="-15.715447"
       ry="1.8520833" />
  </g>
  <g
     inkscape:groupmode="layer"
     id="layer23"
     inkscape:label="warna tiang"
     style="display:inline">
    <path
       style="fill:#0b2228;fill-opacity:0.992157;stroke:#ffffff;stroke-width:0;stroke-miterlimit:4;stroke-dasharray:none"
       d="m 136.82786,145.98093 -0.52916,-54.877894 3.07367,-14.910247 0.36328,-1.762254 c 2.85347,-13.842061 4.07343,-19.013959 5.28074,-32.35129 0.32601,-3.601458 0.69349,-7.276938 0.81662,-8.167735 0.22196,-1.605735 -0.3212,12.261623 -0.3212,12.261623 0,0 -0.004,-14.491814 -1.52439,-1.661734 -0.97229,8.204668 -6.66532,45.133704 -7.62822,49.042877 -0.44688,1.814259 0.54388,-19.925125 0.51004,-37.820311 l -0.0414,-21.886621 1.89003,-2.645834 c 0.6609,-0.925192 1.79869,2.260211 4.02241,0.301628 1.46385,-1.289312 3.99198,-3.612393 4.32456,-3.86888 0.51359,-0.396087 0.53682,0.608877 3.73727,2.873369 l 4.72007,2.81055 h 5.24575 6.30408 v 8.948158 8.948155 h -6.29268 -6.29269 l -0.0961,1.435264 c -0.17495,2.611231 -2.48562,4.925751 -3.21552,4.925751 -0.50014,0 -0.0376,2.197899 -0.0376,22.669828 v 22.669827 h 6.5802 7.63854 v 8.76107 8.76107 h -6.29603 -5.76686 l 0.2758,1.06108 c 0.63473,2.44204 -2.27529,5.97247 -3.85213,7.02612 l -0.82456,0.55097 -1e-5,34.10303 1.05832,37.67491 -6.9158,2.71469 c 0,0 -5.70225,3.89477 -5.79837,3.89477 -0.0961,0 -0.93779,-60.95277 -0.40863,-59.89444 z"
       id="path6661"
       sodipodi:nodetypes="sccssscssscsssscccccccssscccccccssccccscs" />
    <path
       style="fill:#0b2228;fill-opacity:0.992157;stroke:#ffffff;stroke-width:0;stroke-miterlimit:4;stroke-dasharray:none"
       d="M 152.6983,175.98169 V 151.1612 l 2.33443,-0.56214 c 1.36027,-0.32754 1.30772,0.2941 2.44435,-0.83149 l 1.97488,-1.95577 2.14764,1.1949 c 1.42245,0.7914 2.72497,1.19445 3.85734,1.19403 l 2.86051,-8.5e-4 -0.13908,4.53776 -0.13909,4.53777 h -4.16374 c -2.9663,0 -3.01725,0.57993 -3.29255,1.71334 -0.1538,0.63316 -0.66404,0.34153 -1.13387,0.72599 -0.78837,0.64515 -0.23259,1.27667 -0.23259,8.18953 v 6.92835 h 2.45539 6.34453 v 3.54318 3.54322 H 162.88 c -1.76655,0 -1.3048,0.098 -2.29668,1.78865 -0.57716,0.98375 -1.84135,1.78865 -2.04952,1.78865 -0.20818,0 -0.3785,1.94197 -0.3785,5.00256 l 0.36655,2.23038 -2.11387,1.13688 c -0.78575,0.003 -2.57153,2.41866 -3.09481,2.54231 l -0.61487,0.14529 z"
       id="path6663"
       sodipodi:nodetypes="ccsscsscccsssscccccssssccscc" />
  </g>
  <g
     inkscape:label="Layer 1"
     inkscape:groupmode="layer"
     id="layer1"
     style="display:none;opacity:0.748387">
    <path
       style="fill:none;stroke:#000000;stroke-width:0.264583px;stroke-linecap:butt;stroke-linejoin:miter;stroke-opacity:1"
       d="M 147.6375,196.52148 48.292638,253.68419"
       id="path6427" />
    <path
       style="fill:none;stroke:#000000;stroke-width:0.264583px;stroke-linecap:butt;stroke-linejoin:miter;stroke-opacity:1"
       d="M 13.403672,280.78721 27.201569,267.67919"
       id="path6429" />
    <path
       style="fill:none;stroke:#000000;stroke-width:0.264583px;stroke-linecap:butt;stroke-linejoin:miter;stroke-opacity:1"
       d="M 142.24836,32.678408 C 140.31622,29.780193 141.62294,159.86749 27.201569,267.67919"
       id="path6433"
       sodipodi:nodetypes="cc" />
    <path
       style="opacity:0.748387;fill:none;stroke:#000000;stroke-width:0.264583px;stroke-linecap:butt;stroke-linejoin:miter;stroke-opacity:1"
       d="m 143.70553,32.747608 c -1.93214,-2.898215 1.20773,131.119952 -107.638124,234.471502 0,0 -11.822529,14.06085 -8.865837,0.46008"
       id="path6433-3"
       sodipodi:nodetypes="cc" />
    <path
       style="fill:none;stroke:#000000;stroke-width:0.270289px;stroke-linecap:butt;stroke-linejoin:miter;stroke-opacity:1"
       d="m 143.70553,32.747608 -1.65717,-0.0635"
       id="path6460" />
    <path
       style="fill:#cccccc;fill-opacity:0.992157;stroke:#ffffff;stroke-width:1.06901"
       d="m 346.41929,1122.391 c -125.61752,-2.1573 -228.5725,-3.9777 -228.78885,-4.0454 -0.21635,-0.068 5.19302,-4.3716 12.02081,-9.5643 18.7824,-14.2846 94.88961,-75.6307 192.53938,-155.19626 110.64354,-90.15292 262.56518,-211.36021 267.06303,-213.07029 1.8826,-0.71577 6.24526,-1.30139 9.69481,-1.30139 h 6.2719 v 193.74725 193.74729 l -15.2028,-0.1973 c -8.36153,-0.1085 -117.98076,-1.9623 -243.59828,-4.1196 z"
       id="path6627"
       transform="scale(0.26458333)" />
    <path
       style="fill:#ececec;fill-opacity:0.992157;stroke:#ffffff;stroke-width:0;stroke-miterlimit:4;stroke-dasharray:none"
       d="m 535.9239,1124.3449 c -7.38926,-0.1989 -93.80291,2.327 -195.697,0.7243 -101.89409,-1.6027 -292.288412,-6.5334 -284.111221,-6.7618 l 66.150761,-1.8477 -13.05025,3.0528 c -60.254196,14.0951 100.52839,-81.751 190.60512,-154.78 113.09399,-91.69009 249.05368,-199.79864 275.07315,-219.55004 13.81225,-10.4849 16.80935,-4.55489 22.56676,-4.55489 h 6.34494 v 192.33304 192.33309 l -27.22362,-0.2935 c -14.97298,-0.1615 -33.26937,-0.4563 -40.65864,-0.6553 z"
       id="path6629"
       transform="scale(0.26458333)"
       sodipodi:nodetypes="ssscsssscccss" />
  </g>
  <g
     inkscape:groupmode="layer"
     id="layer28"
     inkscape:label="warna jalan 1">
    <path
       style="display:inline;opacity:0.748387;fill:#ececec;fill-opacity:0.992157;stroke:#ffffff;stroke-width:0;stroke-miterlimit:4;stroke-dasharray:none"
       d="m 149.82912,297.4709 c -2.0459,-0.053 -25.97168,0.6202 -54.183642,0.19304 -28.211934,-0.42715 -80.927366,-1.74127 -78.663304,-1.80214 l 18.315496,-0.49245 -3.61329,0.81363 c -16.682887,3.75661 29.101967,-20.26417 52.773793,-41.25179 30.938767,-27.43055 67.294637,-53.64344 73.448147,-60.10447 0,0 7.36687,0.37629 8.96096,0.37629 h 4.93175 v 51.26038 51.26039 l -10.71253,-0.0783 c -4.14576,-0.0303 -9.21146,-0.12161 -11.25737,-0.17465 z"
       id="path6629-9"
       sodipodi:nodetypes="ssscsssscccsss" />
    <path
       style="fill:none;stroke:#000000;stroke-width:0.5;stroke-linecap:butt;stroke-linejoin:miter;stroke-opacity:1;stroke-miterlimit:4;stroke-dasharray:none"
       d="m 88.184621,204.3338 v 30"
       id="path7416" />
    <path
       style="fill:none;stroke:#000000;stroke-width:0.5;stroke-linecap:butt;stroke-linejoin:miter;stroke-opacity:1;stroke-miterlimit:4;stroke-dasharray:none"
       d="m 74.109134,225.68051 v 15"
       id="path7416-6" />
    <path
       style="fill:none;stroke:#000000;stroke-width:0.5;stroke-linecap:butt;stroke-linejoin:miter;stroke-opacity:1;stroke-miterlimit:4;stroke-dasharray:none"
       d="m 58.212103,243.42266 v 10"
       id="path7416-6-4" />
    <path
       style="fill:none;stroke:#000000;stroke-width:0.5;stroke-linecap:butt;stroke-linejoin:miter;stroke-miterlimit:4;stroke-dasharray:none;stroke-opacity:1"
       d="m 102.39377,180.52693 v 45"
       id="path7416-2" />
    <path
       style="fill:none;stroke:#000000;stroke-width:0.5;stroke-linecap:butt;stroke-linejoin:miter;stroke-miterlimit:4;stroke-dasharray:none;stroke-opacity:1"
       d="m 112.1834,158.7394 v 60"
       id="path7416-2-9" />
    <path
       style="fill:none;stroke:#000000;stroke-width:0.5;stroke-linecap:butt;stroke-linejoin:miter;stroke-miterlimit:4;stroke-dasharray:none;stroke-opacity:1"
       d="m 121.44381,139.06868 v 75"
       id="path7416-2-9-5" />
    <path
       style="fill:none;stroke:#000000;stroke-width:0.5;stroke-linecap:butt;stroke-linejoin:miter;stroke-miterlimit:4;stroke-dasharray:none;stroke-opacity:1"
       d="m 127.5292,120.98534 v 90"
       id="path7416-2-9-5-1" />
    <path
       style="fill:none;stroke:#000000;stroke-width:0.5;stroke-linecap:butt;stroke-linejoin:miter;stroke-miterlimit:4;stroke-dasharray:none;stroke-opacity:1"
       d="m 132.55627,107.92891 v 100"
       id="path7416-2-9-5-1-8" />
    <path
       style="fill:none;stroke:#000000;stroke-width:0.547721;stroke-linecap:butt;stroke-linejoin:miter;stroke-miterlimit:4;stroke-dasharray:none;stroke-opacity:1"
       d="M 135.99586,89.964579 V 209.96454"
       id="path7416-2-9-5-1-8-2" />
    <path
       style="fill:none;stroke:#000000;stroke-width:0.5;stroke-linecap:butt;stroke-linejoin:miter;stroke-miterlimit:4;stroke-dasharray:none;stroke-opacity:1"
       d="M 139.3307,78.913942 V 208.91403"
       id="path7416-2-9-5-1-8-2-2" />
    <path
       style="fill:none;stroke:#000000;stroke-width:0.5;stroke-linecap:butt;stroke-linejoin:miter;stroke-miterlimit:4;stroke-dasharray:none;stroke-opacity:1"
       d="M 141.28751,66.497889 V 206.49805"
       id="path7416-2-9-5-1-8-2-2-2" />
    <path
       style="fill:none;stroke:#000000;stroke-width:0.499999;stroke-linecap:butt;stroke-linejoin:miter;stroke-miterlimit:4;stroke-dasharray:none;stroke-opacity:1"
       d="M 141.2875,67.847862 V 207.84786"
       id="path7416-2-9-5-1-8-2-2-2-5" />
    <path
       style="fill:none;stroke:#000000;stroke-width:0.15;stroke-linecap:butt;stroke-linejoin:miter;stroke-miterlimit:4;stroke-dasharray:none;stroke-opacity:1"
       d="m 152.0395,192.40897 v 6"
       id="path7416-6-3" />
    <path
       style="fill:none;stroke:#000000;stroke-width:0.15;stroke-linecap:butt;stroke-linejoin:miter;stroke-miterlimit:4;stroke-dasharray:none;stroke-opacity:1"
       d="m 150.44869,185.1226 v 14"
       id="path7416-6-3-2" />
    <path
       style="fill:none;stroke:#000000;stroke-width:0.141421;stroke-linecap:butt;stroke-linejoin:miter;stroke-miterlimit:4;stroke-dasharray:none;stroke-opacity:1"
       d="m 153.59064,194.54454 v 3"
       id="path7416-6-3-7" />
    <path
       style="fill:none;stroke:#000000;stroke-width:0.15;stroke-linecap:butt;stroke-linejoin:miter;stroke-miterlimit:4;stroke-dasharray:none;stroke-opacity:1"
       d="m 155.07891,190.74113 v 6"
       id="path7416-6-3-5" />
    <path
       style="fill:none;stroke:#000000;stroke-width:0.15;stroke-linecap:butt;stroke-linejoin:miter;stroke-miterlimit:4;stroke-dasharray:none;stroke-opacity:1"
       d="m 156.40798,185.86614 v 10"
       id="path7416-6-3-5-9" />
    <ellipse
       style="fill:#241c1c;fill-opacity:0.992157;stroke:#ffffff;stroke-width:0;stroke-miterlimit:4;stroke-dasharray:none;stroke-dashoffset:0"
       id="path8122-9-5"
       cx="101.30841"
       cy="284.70868"
       rx="0.92604166"
       ry="3.7974079" />
    <rect
       style="fill:#800000;fill-opacity:0.992157;stroke:#ffffff;stroke-width:0;stroke-miterlimit:4;stroke-dasharray:none;stroke-dashoffset:0"
       id="rect8103-5-4"
       width="20.443998"
       height="15.72067"
       x="81.707191"
       y="263.31085"
       ry="5.3796616" />
    <ellipse
       style="fill:#241c1c;fill-opacity:0.992157;stroke:#ffffff;stroke-width:0;stroke-miterlimit:4;stroke-dasharray:none;stroke-dashoffset:0"
       id="path8122-2"
       cx="82.390678"
       cy="285.34167"
       rx="0.92604166"
       ry="3.7974079" />
    <rect
       style="fill:#800000;fill-opacity:0.992157;stroke:#ffffff;stroke-width:0;stroke-miterlimit:4;stroke-dasharray:none;stroke-dashoffset:0"
       id="rect8103-7-9"
       width="25.444056"
       height="12.132569"
       x="79.352974"
       y="272.595"
       ry="2.2151546" />
    <rect
       style="fill:#ffd5d5;fill-opacity:0.992157;stroke:#ffffff;stroke-width:0;stroke-miterlimit:4;stroke-dasharray:none;stroke-dashoffset:0"
       id="rect8154-3"
       width="12.038542"
       height="5.3796616"
       x="85.565689"
       y="267.93677" />
  </g>
  <g
     inkscape:groupmode="layer"
     id="layer27"
     inkscape:label="warna jalan"
     style="display:inline">
    <path
       style="display:inline;fill:#808080;fill-opacity:0.992157;stroke:#ffffff;stroke-width:0;stroke-miterlimit:4;stroke-dasharray:none"
       d="m -0.76583292,296.7278 c -2.16603758,-0.30028 1.26059135,-12.79449 1.17888273,-19.00387 -0.08171,-6.20937 -0.222576,-12.63824 -0.313041,-14.28642 l -0.16448067,-2.99666 18.35890686,0.01 21.335471,-0.65186 -6.826122,5.93292 c -2.211874,1.92245 -6.967521,6.10269 -10.778359,9.70566 -6.208111,5.86946 -5.34375,5.58672 -5.364873,6.39847 0,0 2.753989,-2.66562 3.594372,-2.6621 0.498283,0.003 -0.980646,1.58085 1.968411,1.72983 l 6.097062,-0.0622 24.141266,-16.07855 c 77.938447,-51.90851 84.234667,-58.20021 85.900457,-58.82686 1.32309,-0.49773 19.60387,-11.2994 19.80807,-11.09519 0.0619,0.0619 -3.60428,2.29122 -5.15931,3.54503 -3.06019,2.46741 -26.8462,19.85966 -51.82479,39.01993 -20.443979,15.682 -64.84424,50.03223 -72.853577,56.36321 l -3.58192,2.83133 -2.523926,0.17915 c -1.388159,0.0985 -6.754512,0.17914 -11.925228,0.17914 H 0.90014243 Z"
       id="path6553-7"
       sodipodi:nodetypes="ssscccssscccsssssscsscs" />
    <path
       style="display:inline;fill:#b3b3b3;stroke:#000000;stroke-width:0;stroke-linecap:butt;stroke-linejoin:miter;stroke-miterlimit:4;stroke-dasharray:none;stroke-opacity:1"
       d="m 32.36476,296.44539 -8.312068,0.10465 C 24.496109,296.10661 156.08349,194.35652 158.43549,194.82672"
       id="path6421-8"
       sodipodi:nodetypes="ccc" />
    <ellipse
       style="fill:#1c241f;fill-opacity:0.992157;stroke:#ffffff;stroke-width:0;stroke-miterlimit:4;stroke-dasharray:none;stroke-dashoffset:0"
       id="path8122-9-8"
       cx="203.43758"
       cy="272.20569"
       rx="0.92604166"
       ry="3.175" />
    <rect
       style="fill:#0088aa;fill-opacity:0.992157;stroke:#ffffff;stroke-width:0;stroke-miterlimit:4;stroke-dasharray:none;stroke-dashoffset:0"
       id="rect8103-5-2"
       width="20.443998"
       height="13.143999"
       x="183.83635"
       y="254.31505"
       ry="4.4979167" />
    <ellipse
       style="fill:#1c241f;fill-opacity:0.992157;stroke:#ffffff;stroke-width:0;stroke-miterlimit:4;stroke-dasharray:none;stroke-dashoffset:0"
       id="path8122-3"
       cx="184.51984"
       cy="272.73495"
       rx="0.92604166"
       ry="3.175" />
    <rect
       style="fill:#0088aa;fill-opacity:0.992157;stroke:#ffffff;stroke-width:0;stroke-miterlimit:4;stroke-dasharray:none;stroke-dashoffset:0"
       id="rect8103-7-7"
       width="25.444056"
       height="10.144"
       x="181.48213"
       y="262.07748"
       ry="1.8520833" />
    <rect
       style="fill:#dbe3de;fill-opacity:0.992157;stroke:#ffffff;stroke-width:0;stroke-miterlimit:4;stroke-dasharray:none;stroke-dashoffset:0"
       id="rect8154-4"
       width="12.038542"
       height="4.4979167"
       x="187.69485"
       y="258.18277" />
  </g>
  <g
     inkscape:groupmode="layer"
     id="layer18"
     inkscape:label="Layer 2"
     style="display:none">
    <path
       style="fill:none;stroke:#000000;stroke-width:0.264583px;stroke-linecap:butt;stroke-linejoin:miter;stroke-opacity:1"
       d="m 37.150463,296.93645 -4.39631,0.002 -4.198042,0.002 C 30.490569,297.76951 160.5051,189.01386 156.00967,195.69717"
       id="path6419"
       sodipodi:nodetypes="cccc" />
    <path
       style="fill:#b3b3b3;stroke:#000000;stroke-width:0.264583px;stroke-linecap:butt;stroke-linejoin:miter;stroke-opacity:1"
       d="m 28.556111,296.94044 -5.837202,-0.3402 C 23.162326,296.15682 155.38824,193.24787 156.00967,195.168"
       id="path6421"
       sodipodi:nodetypes="ccc" />
    <path
       style="fill:none;stroke:#000000;stroke-width:0.264583px;stroke-linecap:butt;stroke-linejoin:miter;stroke-opacity:1"
       d="m 156.00967,195.168 c 0,0 -6.30249,0.26936 -8.96351,1.84626 -2.66102,1.5769 -121.457879,85.52118 -121.457879,85.52118 l -12.18461,-0.52916 1e-6,-1.21907 12.454492,0.43061 -0.134941,1.24485"
       id="path6423"
       sodipodi:nodetypes="cscc" />
    <path
       style="fill:none;stroke:#000000;stroke-width:0.264583px;stroke-linecap:butt;stroke-linejoin:miter;stroke-opacity:1"
       d="m 25.858164,281.21782 15.929754,-11.37037 4.040812,-8.3773 101.80877,-64.94867"
       id="path6425" />
    <path
       style="fill:#b3b3b3;fill-opacity:0.992157;stroke:#ffffff;stroke-width:0.796407"
       d=""
       id="path6537"
       transform="scale(0.26458333)" />
    <path
       style="fill:none;stroke:#000000;stroke-width:0.264583px;stroke-linecap:butt;stroke-linejoin:miter;stroke-opacity:1"
       d="m 22.718909,296.60024 -24.1127071,0.27874 -0.7016735,-37.08429"
       id="path6539" />
    <path
       style="fill:#808080;fill-opacity:0.992157;stroke:#ffffff;stroke-width:0.796407"
       d="m -4.4274529,1105.6613 c -0.35186,-8.2574 -0.8924148,-34.215 -1.2012329,-57.6835 -0.3088181,-23.4685 -0.8412346,-47.7666 -1.1831475,-53.99593 l -0.6216601,-11.32598 69.3880144,0.0363 75.388009,-1.9637 -20.54952,21.92361 c -7.57464,8.0812 -26.333941,21.0653 -40.73711,34.6828 -23.463724,22.1838 -26.196849,23.1152 -26.276685,26.1832 -0.08265,3.1763 0.158799,3.4252 3.33503,3.4385 1.883273,0.01 12.543622,0.4749 23.689664,1.038 l 20.265532,1.0236 93.521069,-66.0281 c 314.11822,-221.77499 364.67828,-257.14393 370.9742,-259.51237 5.00066,-1.88118 19.97421,-4.75882 20.74602,-3.987 0.23391,0.23391 -4.64307,3.95633 -10.83772,8.27204 -22.82178,15.89954 -101.81949,75.41367 -196.22678,147.83045 -77.26899,59.27054 -245.081,189.09818 -275.352511,213.02628 l -13.53797,10.7011 -9.539248,0.6771 c -5.246587,0.3724 -25.528864,0.6771 -45.071728,0.6771 H -3.7877073 Z"
       id="path6553"
       transform="scale(0.26458333)"
       sodipodi:nodetypes="ssscccssscccsssssscsscs" />
  </g>
  <g
     inkscape:groupmode="layer"
     id="layer21"
     inkscape:label="Layer 5"
     style="display:inline">
    <path
       style="fill:#004455;fill-opacity:0.992157;stroke:#ffffff;stroke-width:0;stroke-miterlimit:4;stroke-dasharray:none"
       d="m 20.505062,280.67468 -3.886496,-0.15142 -0.304921,-0.0695 c -0.915876,-0.2087 4.555812,-4.40052 7.365994,-6.99736 l 17.791228,-16.1221 -10.690403,13.45039 c -1.211595,1.52439 -0.509931,-2.57437 0.0984,-2.08177 1.611892,1.30521 1.720937,4.06146 13.426752,-7.12503 l 6.632858,-7.8937 42.19866,-23.93307 c 4.377314,-2.4826 32.327416,-18.22523 38.013176,-21.14979 11.60395,-5.96867 18.83838,-9.25117 18.89662,-9.19292 0.0731,0.0731 -37.62102,22.24301 -60.957619,36.64003 l -42.29813,29.36364 v 0 l -2.102871,4.23956 -8.410713,6.17405 -7.881544,5.11572 -2.002246,-0.0577 c -1.101236,-0.0317 -3.75117,-0.12578 -5.888744,-0.20907 z"
       id="path6525"
       sodipodi:nodetypes="scsscssscsssscccccsss" />
    <path
       style="fill:#00222b;fill-opacity:0.992157;stroke:#ffffff;stroke-width:0;stroke-miterlimit:4;stroke-dasharray:none"
       d="m 27.061352,282.09303 c 0.07151,-0.11501 -0.238732,0.16947 2.08338,-1.40914 L 44.552916,269.68 l 1.826617,-3.74012 2.355781,-4.79847 42.537973,-27.27485 c 22.916683,-14.69391 67.248563,-39.1373 67.248563,-39.1373 0,0 -11.85537,7.09029 -18.63909,11.44649 -7.46188,4.79167 -48.987261,33.20018 -68.178342,46.74212 -19.191084,13.54194 -42.38113,29.38421 -42.478809,29.38421 -0.03805,0 -0.385808,-0.0143 -0.791943,-0.0385 -0.636323,-0.038 -1.415961,-0.10035 -1.372314,-0.17055 z"
       id="path6529"
       sodipodi:nodetypes="sscccscsssss" />
    <path
       style="fill:#002b22;fill-opacity:0.992157;stroke:#ffffff;stroke-width:0.199102"
       d=""
       id="path6533"
       transform="scale(0.26458333)" />
    <path
       style="fill:#00222b;fill-opacity:0.992157;stroke:#ffffff;stroke-width:0;stroke-miterlimit:4;stroke-dasharray:none"
       d="m 22.093069,282.10483 c -3.181344,-0.14512 -5.807782,-0.26627 -5.83653,-0.26921 -0.02875,-0.003 -0.05229,-0.20138 -0.05231,-0.44093 l -4.3e-5,-0.96472 6.058105,0.20579 6.058106,0.20579 -0.03436,0.88091 c -0.02359,0.60497 -0.08343,0.66619 -0.253236,0.65579 -0.08551,-0.005 -2.758392,-0.12827 -5.939736,-0.27342 z"
       id="path6535"
       sodipodi:nodetypes="ssscccsss" />
  </g>
  <g
     inkscape:groupmode="layer"
     id="layer19"
     inkscape:label="Layer 3"
     style="display:inline">
    <path
       style="fill:#536c67;fill-opacity:0.992157;stroke:#ffffff;stroke-width:0;stroke-miterlimit:4;stroke-dasharray:none"
       d="m 29.999814,270.84173 c 0,-2.25219 0.278093,-2.60686 9.070832,-11.56852 14.134666,-14.40624 23.806404,-25.61363 34.680869,-40.18743 39.202405,-52.53845 63.604525,-114.75776 70.571365,-179.93933 0.36871,-3.44965 1.89752,-9.44709 2.10383,-9.44709 0.20632,0 -0.0707,1.278183 -0.61557,6.720967 -7.03138,70.235783 -26.65177,132.440393 -73.154635,193.027023 -8.085064,10.53369 -19.388143,23.61404 -21.383062,24.79247 -0.869473,0.51361 -0.116249,-0.0578 -0.116249,0.33078 0,0.76419 -15.254103,15.28003 -18.018297,17.34013 -2.486941,1.85346 -3.139083,1.63139 -3.139083,-1.069 z"
       id="path6518"
       sodipodi:nodetypes="sssssssssss" />
  </g>
  <g
     inkscape:groupmode="layer"
     id="layer26"
     inkscape:label="warna kabel"
     style="display:inline">
    <path
       style="fill:#000000;fill-opacity:0.992157;stroke:#ffffff;stroke-width:0;stroke-miterlimit:4;stroke-dasharray:none"
       d="m 144.00961,42.138666 0.0333,-0.459926 1.21494,-0.0027 z"
       id="path7182"
       sodipodi:nodetypes="cccc" />
    <path
       style="fill:#000000;fill-opacity:0.992157;stroke:#ffffff;stroke-width:0.267253"
       d=""
       id="path7184"
       transform="scale(0.26458333)" />
    <path
       style="fill:#000000;fill-opacity:0.992157;stroke:#ffffff;stroke-width:0;stroke-miterlimit:4;stroke-dasharray:none"
       d="m 143.64808,52.761422 -1.01239,-0.194914 0.0533,-0.294282 0.0163,-0.191487 0.70303,0.09616 0.49968,0.08078 c 0,0 -0.0144,0.498562 -0.0435,0.552878 -0.0276,0.0516 -0.2164,-0.04914 -0.2164,-0.04914 z"
       id="path7186"
       sodipodi:nodetypes="ccccccsc" />
    <path
       style="fill:#000000;fill-opacity:0.992157;stroke:#ffffff;stroke-width:0;stroke-miterlimit:4;stroke-dasharray:none"
       d="m 142.26408,64.539727 c 0,0 -0.52364,-0.128754 -0.95205,-0.149505 -0.48659,-0.02357 -0.58622,-0.01244 -0.57785,-0.06871 l 0.0317,-0.213138 0.1054,-0.310078 1.54544,0.09571 -0.12073,0.429948 -0.0319,0.215775 c 0,-5e-6 0,-5e-6 0,-5e-6 z"
       id="path7188"
       sodipodi:nodetypes="sssccccccs" />
    <path
       style="fill:#000000;fill-opacity:0.992157;stroke:#ffffff;stroke-width:0;stroke-miterlimit:4;stroke-dasharray:none"
       d="m 139.08262,76.756545 -0.79982,-0.06844 -0.01,0.01654 0.0588,0.01125 0.16022,-0.612526 c 0.80059,0.0286 1.14832,-0.0029 1.63601,0.05279 l -0.15258,0.629705 -0.4383,-0.03715 z"
       id="path7190"
       sodipodi:nodetypes="ccsccccccc" />
    <path
       style="fill:#000000;fill-opacity:0.992157;stroke:#ffffff;stroke-width:0.0125"
       d="m 137.13878,90.164877 c -0.0182,-0.01035 -0.0658,-0.04732 -0.1057,-0.0822 -0.12984,-0.113363 -0.49589,-0.198149 -1.09319,-0.253211 -0.39598,-0.0365 -0.60067,-0.06825 -0.68742,-0.106622 -0.0403,-0.01783 -0.0733,-0.03628 -0.0733,-0.04101 0,-0.03102 0.18965,-0.737161 0.20693,-0.770472 0.0573,-0.110559 0.17463,-0.167529 0.44858,-0.217903 0.16809,-0.0309 0.25641,-0.0361 0.6178,-0.03638 0.38451,-2.65e-4 0.43324,0.0029 0.55274,0.0361 0.24277,0.06747 0.24674,0.0778 0.25441,0.661744 0.006,0.465648 -0.0103,0.694171 -0.0561,0.782854 -0.0133,0.0258 -0.0259,0.04667 -0.028,0.0464 -0.002,-2.65e-4 -0.0186,-0.009 -0.0368,-0.01929 z"
       id="path7192" />
    <path
       style="fill:#000000;fill-opacity:0.992157;stroke:#ffffff;stroke-width:0.0125"
       d="m 133.5975,105.03995 c -0.0286,-0.007 -0.13283,-0.0503 -0.23151,-0.0968 -0.37343,-0.17602 -0.66653,-0.205 -1.65148,-0.16327 -0.36217,0.0153 -0.66129,0.0251 -0.66471,0.0217 -0.0144,-0.0144 0.0962,-0.46363 0.14294,-0.5804 0.083,-0.20736 0.1523,-0.29779 0.27144,-0.35441 0.42407,-0.2015 1.4747,-0.22224 1.98656,-0.0392 0.20436,0.0731 0.38184,0.16576 0.43639,0.22789 0.0676,0.077 0.0678,0.14283 10e-4,0.48213 -0.0875,0.44585 -0.14065,0.53765 -0.29085,0.50236 z"
       id="path7194" />
    <path
       style="fill:#000000;fill-opacity:0.992157;stroke:#ffffff;stroke-width:0.0125"
       d="m 129.26313,119.73977 c -0.25199,-0.27212 -0.46827,-0.41514 -0.80251,-0.53068 -0.35636,-0.12318 -0.60999,-0.15669 -1.32536,-0.17507 -0.51526,-0.0133 -0.66238,-0.0273 -0.686,-0.0655 -0.005,-0.008 0.0215,-0.0954 0.0589,-0.19369 0.0375,-0.0983 0.10901,-0.29415 0.159,-0.43512 0.10785,-0.30415 0.19979,-0.50711 0.26973,-0.59541 0.0796,-0.10057 0.1997,-0.15042 0.39252,-0.163 0.2041,-0.0133 0.61301,0.005 0.86236,0.0392 0.63251,0.0861 1.18212,0.30882 1.44689,0.5864 0.13375,0.14022 0.16599,0.22088 0.15342,0.38384 -0.0156,0.20275 -0.0859,0.48331 -0.22469,0.89667 -0.0705,0.21007 -0.13152,0.39199 -0.13558,0.40427 -0.005,0.0136 -0.0702,-0.0455 -0.1687,-0.15188 z"
       id="path7196" />
    <path
       style="fill:#000000;fill-opacity:0.992157;stroke:#ffffff;stroke-width:0.0125"
       d="m 122.8436,138.70784 c -0.009,-0.0114 -0.0362,-0.0641 -0.0596,-0.11712 -0.0562,-0.12738 -0.12191,-0.2078 -0.2458,-0.30094 -0.27399,-0.20596 -0.75167,-0.35824 -1.3518,-0.43094 -0.12428,-0.015 -0.47947,-0.031 -0.89066,-0.0401 -0.69579,-0.0153 -0.87874,-0.026 -0.87874,-0.0512 0,-0.0412 0.31231,-0.78171 0.37498,-0.88903 0.14563,-0.24942 0.28701,-0.31367 0.93507,-0.42496 0.3058,-0.0525 0.3865,-0.0604 0.61644,-0.0602 0.5372,5.3e-4 1.11713,0.13021 1.57097,0.35147 0.11663,0.0569 0.23177,0.13334 0.39073,0.25953 l 0.22536,0.1789 -0.0302,0.0822 c -0.0166,0.0452 -0.0982,0.26827 -0.18136,0.49565 -0.19191,0.52484 -0.28324,0.74246 -0.36418,0.86769 -0.0666,0.10305 -0.0823,0.11417 -0.11121,0.079 z"
       id="path7198" />
    <path
       style="fill:#000000;fill-opacity:0.992157;stroke:#ffffff;stroke-width:0.0125"
       d="m 103.70243,180.83072 c -0.0771,-0.0796 -0.22632,-0.24516 -0.33155,-0.36794 -0.60197,-0.70239 -1.07505,-0.96357 -1.932,-1.06661 -0.15847,-0.0191 -0.47032,-0.0309 -1.07487,-0.0409 -0.468397,-0.008 -0.868297,-0.0204 -0.888677,-0.0282 -0.03601,-0.0138 -0.03263,-0.0222 0.12124,-0.30328 0.425887,-0.7778 0.551137,-0.94915 0.776277,-1.06191 0.16198,-0.0811 0.50163,-0.17237 0.81799,-0.21972 1.15466,-0.17285 2.30914,0.25106 2.92595,1.07438 0.10917,0.14572 0.50112,0.79303 0.50211,0.82925 5.3e-4,0.0224 -0.40713,0.80156 -0.52163,0.99678 -0.11411,0.19454 -0.21183,0.33283 -0.23519,0.33283 -0.0107,0 -0.0825,-0.0651 -0.15965,-0.14469 z"
       id="path7200" />
    <path
       style="fill:#000000;fill-opacity:0.992157;stroke:#ffffff;stroke-width:0.0125"
       d="m 89.772117,204.86302 c -0.01815,-0.0387 -0.0487,-0.12306 -0.06789,-0.18757 -0.06706,-0.22538 -0.34412,-0.6072 -0.726787,-1.00159 -0.454032,-0.46794 -0.802465,-0.71939 -1.232963,-0.88978 -0.472348,-0.18695 -1.038842,-0.22646 -2.035776,-0.14195 -0.272851,0.0231 -0.504883,0.0421 -0.515622,0.0421 -0.01839,8e-5 0.159356,-0.31858 0.299714,-0.53736 0.310579,-0.48408 0.651367,-0.772 1.101908,-0.93094 0.456488,-0.16104 1.264041,-0.25355 1.77637,-0.20348 1.055817,0.10316 1.80838,0.64451 2.322925,1.67097 0.11094,0.22131 0.198885,0.46345 0.198885,0.5476 0,0.0947 -0.248716,0.52848 -0.623747,1.08781 -0.190672,0.28438 -0.433412,0.61444 -0.451882,0.61444 -0.0067,0 -0.02698,-0.0316 -0.04513,-0.0703 z"
       id="path7202" />
    <path
       style="fill:#000000;fill-opacity:0.992157;stroke:#ffffff;stroke-width:0.0125"
       d="m 75.532787,225.11955 c -0.05165,-0.15689 -0.122565,-0.34479 -0.157577,-0.41755 -0.1416,-0.29427 -0.415936,-0.65482 -0.760966,-1.00013 -0.562523,-0.56299 -1.030875,-0.8323 -1.643515,-0.94506 -0.144883,-0.0267 -0.276008,-0.0354 -0.621813,-0.0413 -0.385625,-0.007 -0.505696,-0.002 -1.000456,0.0407 -0.309232,0.0265 -0.56424,0.0465 -0.566684,0.0444 -0.01143,-0.01 0.636595,-0.8434 0.751183,-0.9666 0.434711,-0.46737 0.829128,-0.61461 1.890827,-0.70586 0.38432,-0.033 0.69691,-0.0171 1.025313,0.0522 0.983991,0.20776 1.72511,0.88788 2.155537,1.97813 0.20289,0.5139 0.193976,0.62525 -0.08384,1.04737 -0.228568,0.34728 -0.85416,1.19889 -0.880703,1.19889 -0.0074,0 -0.05565,-0.12836 -0.107302,-0.28525 z"
       id="path7204" />
    <path
       style="fill:#000000;fill-opacity:0.992157;stroke:#ffffff;stroke-width:0.013;stroke-miterlimit:4;stroke-dasharray:none"
       d="m 58.102448,246.67122 c -0.01345,-0.025 -0.104906,-0.22034 -0.203241,-0.43405 -0.276992,-0.60201 -0.356834,-0.74098 -0.584221,-1.01692 -0.123581,-0.14996 -0.415115,-0.42727 -0.584084,-0.55556 -0.168441,-0.12791 -0.455651,-0.30226 -0.662673,-0.40227 -0.585281,-0.28278 -1.192356,-0.42029 -1.87537,-0.42481 -0.465296,-0.003 -0.458734,0.0292 -0.06905,-0.33985 0.270611,-0.2563 0.368093,-0.33687 0.531883,-0.43964 0.853045,-0.53522 1.969153,-0.82981 2.583324,-0.68187 0.385249,0.0928 0.815052,0.40602 1.54439,1.12547 0.368385,0.36339 0.511215,0.52175 0.651454,0.72229 0.313936,0.44893 0.252421,0.73922 -0.292846,1.38192 -0.161503,0.19038 -0.9969,1.11075 -1.008183,1.11075 -0.0039,0 -0.01794,-0.0205 -0.03138,-0.0455 z"
       id="path7206" />
    <path
       style="fill:#000000;fill-opacity:0.992157;stroke:#ffffff;stroke-width:0;stroke-miterlimit:4;stroke-dasharray:none"
       d="m 113.59356,158.26352 c -0.56944,-0.54585 -1.31275,-0.74706 -2.58525,-0.6998 -0.49257,0.0183 0.2478,-0.81637 0.75833,-1.54714 0,0 0.2428,-0.002 1.09715,0.11233 0.58655,0.0787 1.83943,0.91602 2.13743,1.21402 0.49708,0.49708 -0.0189,0.0761 -0.36956,0.78098 l -0.3822,0.76834 z"
       id="path7208"
       sodipodi:nodetypes="sssssscs" />
    <path
       style="fill:#000000;fill-opacity:0.992157;stroke:#ffffff;stroke-width:0;stroke-miterlimit:4;stroke-dasharray:none"
       d="m 145.25787,41.676042 -0.0333,0.459925 -1.21494,0.0027 z"
       id="path7182-5"
       sodipodi:nodetypes="cccc" />
  </g>
  <g
     inkscape:groupmode="layer"
     id="layer24"
     inkscape:label="kabel"
     style="display:inline">
    <path
       style="fill:#536c67;fill-opacity:0.992157;stroke:#ffffff;stroke-width:0.0668132"
       d=""
       id="path6751"
       transform="scale(0.26458333)" />
    <path
       style="fill:#536c67;fill-opacity:0.992157;stroke:#ffffff;stroke-width:0;stroke-miterlimit:4;stroke-dasharray:none"
       d="m 153.06547,195.00894 c -1.23153,-0.79655 -2.33213,-5.59734 -3.37713,-14.73087 -0.11256,-0.9842 -0.13462,-3.61152 -0.13462,-3.61152 l -0.063,-1.78224 -0.0953,-0.19011 v 0 l 0.0953,0.19011 -0.0388,-0.65971 c -0.0109,-0.17689 0.34665,1.68306 0.40993,2.38558 0.70562,7.83593 1.85481,14.66968 2.84309,16.90666 0.41253,0.93379 0.75346,1.09439 1.14229,0.53812 1.75176,-2.50624 3.5961,-17.11072 5.16826,-40.92502 0.0832,-1.26042 0.16335,-2.41847 0.17811,-2.57344 l 0.0268,-0.28176 h 0.28001 0.28003 l -0.0257,0.24419 c -0.0141,0.1343 -0.0935,1.27545 -0.17611,2.53586 -0.22251,3.39056 -0.72453,10.17151 -0.98462,13.29922 -1.24235,14.94017 -2.55049,24.15992 -3.88052,27.34979 -0.50427,1.20943 -1.08501,1.66933 -1.64807,1.30514 z"
       id="path7414"
       sodipodi:nodetypes="sscccccsssssscccssssss" />
  </g>
  <g
     inkscape:groupmode="layer"
     id="layer30"
     inkscape:label="kanan">
    <path
       style="display:inline;fill:#0b2228;fill-opacity:0.992157;stroke:#ffffff;stroke-width:0;stroke-miterlimit:4;stroke-dasharray:none"
       d="m 193.57337,145.99669 0.52916,-54.877848 -3.07367,-14.910166 -0.36328,-1.762238 c -2.85347,-13.841982 -4.07343,-19.013852 -5.28074,-32.351107 -0.32601,-3.601439 -0.69349,-7.276898 -0.81662,-8.167695 -0.22196,-1.60573 0.3212,12.261561 0.3212,12.261561 0,0 0.004,-14.491745 1.52439,-1.661731 0.97229,8.204625 6.66532,45.133455 7.62822,49.042613 0.44688,1.814248 -0.54388,-19.925028 -0.51004,-37.820106 l 0.0414,-21.886497 -1.89003,-2.645834 c -0.6609,-0.925184 -1.79869,2.260207 -4.02241,0.30163 -1.46385,-1.289304 -3.99198,-3.612369 -4.32456,-3.868859 -0.51359,-0.396087 -0.53682,0.608877 -3.73727,2.873355 l -4.72007,2.810541 h -5.24575 -6.30408 v 8.948112 8.948099 h 6.29268 6.29269 l 0.0961,1.435261 c 0.17495,2.611215 2.48562,4.925723 3.21552,4.925723 0.50014,0 0.0376,2.197885 0.0376,22.669701 v 22.669715 h -6.5802 -7.63854 v 8.76107 8.76107 h 6.29603 5.76686 l -0.2758,1.06108 c -0.63473,2.44204 2.27529,5.97247 3.85213,7.02612 l 0.82456,0.55097 1e-5,34.10303 -1.05832,37.67491 6.9158,2.71469 c 0,0 5.70225,3.89477 5.79837,3.89477 0.0961,0 0.93779,-60.95277 0.40863,-59.89444 z"
       id="path6661-0"
       sodipodi:nodetypes="sccssscssscsssscccccccssscccccccssccccscs" />
    <path
       style="display:inline;fill:#0b2228;fill-opacity:0.992157;stroke:#ffffff;stroke-width:0;stroke-miterlimit:4;stroke-dasharray:none"
       d="m 177.70293,175.99745 v -24.82049 l -2.33443,-0.56214 c -1.36027,-0.32754 -1.30772,0.2941 -2.44435,-0.83149 l -1.97488,-1.95577 -2.14764,1.1949 c -1.42245,0.7914 -2.72497,1.19445 -3.85734,1.19403 l -2.86051,-7.9e-4 0.13908,4.53776 0.13909,4.53777 h 4.16374 c 2.9663,0 3.01725,0.57993 3.29255,1.71334 0.1538,0.63316 0.66404,0.34153 1.13387,0.72599 0.78837,0.64515 0.23259,1.27667 0.23259,8.18953 v 6.92835 h -2.45539 -6.34453 v 3.54318 3.54322 h 5.13645 c 1.76655,0 1.3048,0.098 2.29668,1.78865 0.57716,0.98375 1.84135,1.78865 2.04952,1.78865 0.20818,0 0.3785,1.94197 0.3785,5.00256 l -0.36655,2.23038 2.11387,1.13688 c 0.78575,0.003 2.57153,2.41866 3.09481,2.54231 l 0.61487,0.14529 z"
       id="path6663-3"
       sodipodi:nodetypes="ccsscsscccsssscccccssssccscc" />
    <path
       style="display:inline;opacity:0.748387;fill:#ececec;fill-opacity:0.992157;stroke:#ffffff;stroke-width:0;stroke-miterlimit:4;stroke-dasharray:none"
       d="m 181.10128,297.48667 c 2.0459,-0.053 25.97168,0.62018 54.18364,0.19304 28.21194,-0.42715 80.92737,-1.74128 78.66331,-1.80216 l -18.3155,-0.49244 3.61329,0.81362 c 16.68289,3.75663 -29.10197,-20.26416 -52.77379,-41.25178 -30.93877,-27.43055 -67.29464,-53.64344 -73.44815,-60.10447 0,0 -7.36687,0.37629 -8.96096,0.37629 h -4.93175 v 51.26038 51.26038 l 10.71253,-0.0783 c 4.14576,-0.0303 9.21146,-0.1216 11.25737,-0.17465 z"
       id="path6629-9-0"
       sodipodi:nodetypes="ssscsssscccsss" />
    <path
       style="fill:none;stroke:#000000;stroke-width:0.499999;stroke-linecap:butt;stroke-linejoin:miter;stroke-miterlimit:4;stroke-dasharray:none;stroke-opacity:1"
       d="m 242.21661,204.34956 v 30"
       id="path7416-0" />
    <path
       style="fill:none;stroke:#000000;stroke-width:0.499999;stroke-linecap:butt;stroke-linejoin:miter;stroke-miterlimit:4;stroke-dasharray:none;stroke-opacity:1"
       d="m 256.2921,225.69627 v 15"
       id="path7416-6-6" />
    <path
       style="fill:none;stroke:#000000;stroke-width:0.499999;stroke-linecap:butt;stroke-linejoin:miter;stroke-miterlimit:4;stroke-dasharray:none;stroke-opacity:1"
       d="m 272.18913,243.43842 v 10"
       id="path7416-6-4-8" />
    <path
       style="fill:none;stroke:#000000;stroke-width:0.499999;stroke-linecap:butt;stroke-linejoin:miter;stroke-miterlimit:4;stroke-dasharray:none;stroke-opacity:1"
       d="m 228.00746,180.54269 v 45"
       id="path7416-2-8" />
    <path
       style="fill:none;stroke:#000000;stroke-width:0.499999;stroke-linecap:butt;stroke-linejoin:miter;stroke-miterlimit:4;stroke-dasharray:none;stroke-opacity:1"
       d="m 218.21783,158.75516 v 60"
       id="path7416-2-9-1" />
    <path
       style="fill:none;stroke:#000000;stroke-width:0.499999;stroke-linecap:butt;stroke-linejoin:miter;stroke-miterlimit:4;stroke-dasharray:none;stroke-opacity:1"
       d="m 208.95742,139.08444 v 75"
       id="path7416-2-9-5-2" />
    <path
       style="fill:none;stroke:#000000;stroke-width:0.499999;stroke-linecap:butt;stroke-linejoin:miter;stroke-miterlimit:4;stroke-dasharray:none;stroke-opacity:1"
       d="m 202.87203,121.0011 v 90"
       id="path7416-2-9-5-1-9" />
    <path
       style="fill:none;stroke:#000000;stroke-width:0.499999;stroke-linecap:butt;stroke-linejoin:miter;stroke-miterlimit:4;stroke-dasharray:none;stroke-opacity:1"
       d="m 197.84496,107.94467 v 100"
       id="path7416-2-9-5-1-8-3" />
    <path
       style="fill:none;stroke:#000000;stroke-width:0.547722;stroke-linecap:butt;stroke-linejoin:miter;stroke-miterlimit:4;stroke-dasharray:none;stroke-opacity:1"
       d="M 194.40537,89.980388 V 209.9803"
       id="path7416-2-9-5-1-8-2-0" />
    <path
       style="fill:none;stroke:#000000;stroke-width:0.499999;stroke-linecap:butt;stroke-linejoin:miter;stroke-miterlimit:4;stroke-dasharray:none;stroke-opacity:1"
       d="M 191.07053,78.929811 V 208.92979"
       id="path7416-2-9-5-1-8-2-2-8" />
    <path
       style="fill:none;stroke:#000000;stroke-width:0.499999;stroke-linecap:butt;stroke-linejoin:miter;stroke-miterlimit:4;stroke-dasharray:none;stroke-opacity:1"
       d="M 189.11372,66.513833 V 206.51381"
       id="path7416-2-9-5-1-8-2-2-2-9" />
    <path
       style="fill:none;stroke:#000000;stroke-width:0.499999;stroke-linecap:butt;stroke-linejoin:miter;stroke-miterlimit:4;stroke-dasharray:none;stroke-opacity:1"
       d="M 189.11373,67.863804 V 207.86362"
       id="path7416-2-9-5-1-8-2-2-2-5-2" />
    <path
       style="fill:none;stroke:#000000;stroke-width:0.15;stroke-linecap:butt;stroke-linejoin:miter;stroke-miterlimit:4;stroke-dasharray:none;stroke-opacity:1"
       d="m 178.36173,192.42473 v 6"
       id="path7416-6-3-21" />
    <path
       style="fill:none;stroke:#000000;stroke-width:0.15;stroke-linecap:butt;stroke-linejoin:miter;stroke-miterlimit:4;stroke-dasharray:none;stroke-opacity:1"
       d="m 179.95254,185.13836 v 14"
       id="path7416-6-3-2-0" />
    <path
       style="fill:none;stroke:#000000;stroke-width:0.141421;stroke-linecap:butt;stroke-linejoin:miter;stroke-miterlimit:4;stroke-dasharray:none;stroke-opacity:1"
       d="m 176.81059,194.5603 v 3"
       id="path7416-6-3-7-9" />
    <path
       style="fill:none;stroke:#000000;stroke-width:0.15;stroke-linecap:butt;stroke-linejoin:miter;stroke-miterlimit:4;stroke-dasharray:none;stroke-opacity:1"
       d="m 175.32232,190.75689 v 6"
       id="path7416-6-3-5-4" />
    <path
       style="fill:none;stroke:#000000;stroke-width:0.15;stroke-linecap:butt;stroke-linejoin:miter;stroke-miterlimit:4;stroke-dasharray:none;stroke-opacity:1"
       d="m 173.99325,185.8819 v 10"
       id="path7416-6-3-5-9-4" />
    <path
       style="display:inline;fill:#808080;fill-opacity:0.992157;stroke:#ffffff;stroke-width:0;stroke-miterlimit:4;stroke-dasharray:none"
       d="m 331.16706,296.74356 c 2.16604,-0.30028 -1.26059,-12.79449 -1.17888,-19.00387 0.0817,-6.20937 0.22258,-12.63824 0.31304,-14.28642 l 0.16448,-2.99666 -18.3589,0.01 -21.33547,-0.65186 6.82612,5.93292 c 2.21187,1.92245 6.96752,6.10269 10.77836,9.70566 6.20811,5.86946 5.34375,5.58672 5.36487,6.39847 0,0 -2.75399,-2.66562 -3.59437,-2.6621 -0.49828,0.003 0.98064,1.58085 -1.96841,1.72983 l -6.09707,-0.0622 -24.14126,-16.07855 c -77.93845,-51.90851 -84.23467,-58.20021 -85.90046,-58.82686 -1.32309,-0.49773 -19.60387,-11.2994 -19.80807,-11.09519 -0.0619,0.0619 3.60428,2.29122 5.15931,3.54503 3.06019,2.46741 26.8462,19.85966 51.82479,39.01993 20.44398,15.682 64.84424,50.03223 72.85358,56.36322 l 3.58192,2.83133 2.52392,0.17915 c 1.38816,0.0985 6.75452,0.17912 11.92523,0.17912 h 9.4013 z"
       id="path6553-7-6"
       sodipodi:nodetypes="ssscccssscccsssssscsscs" />
    <path
       style="display:inline;fill:#b3b3b3;stroke:#000000;stroke-width:0;stroke-linecap:butt;stroke-linejoin:miter;stroke-miterlimit:4;stroke-dasharray:none;stroke-opacity:1"
       d="m 298.03647,296.46114 8.31207,0.10467 c -0.44342,-0.44344 -132.0308,-102.19353 -134.3828,-101.72333"
       id="path6421-8-7"
       sodipodi:nodetypes="ccc" />
    <path
       style="display:inline;fill:#004455;fill-opacity:0.992157;stroke:#ffffff;stroke-width:0;stroke-miterlimit:4;stroke-dasharray:none"
       d="m 309.89617,280.69044 3.8865,-0.15142 0.30492,-0.0695 c 0.91587,-0.2087 -4.55581,-4.40052 -7.366,-6.99736 l -17.79122,-16.1221 10.6904,13.45039 c 1.21159,1.52439 0.50993,-2.57437 -0.0984,-2.08177 -1.61189,1.30521 -1.72094,4.06146 -13.42675,-7.12503 l -6.63286,-7.8937 -42.19866,-23.93307 c -4.37732,-2.4826 -32.32742,-18.22523 -38.01318,-21.14979 -11.60395,-5.96867 -18.83838,-9.25117 -18.89662,-9.19292 -0.0731,0.0731 37.62102,22.24301 60.95762,36.64003 l 42.29813,29.36364 v 0 l 2.10287,4.23956 8.41071,6.17405 7.88155,5.11572 2.00224,-0.0577 c 1.10124,-0.0317 3.75117,-0.12578 5.88875,-0.20907 z"
       id="path6525-4"
       sodipodi:nodetypes="scsscssscsssscccccsss" />
    <path
       style="display:inline;fill:#00222b;fill-opacity:0.992157;stroke:#ffffff;stroke-width:0;stroke-miterlimit:4;stroke-dasharray:none"
       d="m 303.33988,282.10879 c -0.0715,-0.11501 0.23873,0.16947 -2.08338,-1.40914 l -15.40818,-11.00389 -1.82662,-3.74012 -2.35578,-4.79847 -42.53798,-27.27485 c -22.91668,-14.69391 -67.24856,-39.1373 -67.24856,-39.1373 0,0 11.85537,7.09029 18.63909,11.44649 7.46188,4.79167 48.98726,33.20018 68.17834,46.74212 19.19109,13.54194 42.38113,29.38421 42.47881,29.38421 0.038,0 0.38581,-0.0143 0.79195,-0.0385 0.63632,-0.038 1.41596,-0.10035 1.37231,-0.17055 z"
       id="path6529-3"
       sodipodi:nodetypes="sscccscsssss" />
    <path
       style="display:inline;fill:#00222b;fill-opacity:0.992157;stroke:#ffffff;stroke-width:0;stroke-miterlimit:4;stroke-dasharray:none"
       d="m 308.30816,282.12059 c 3.18135,-0.14512 5.80779,-0.26627 5.83653,-0.26921 0.0288,-0.003 0.0523,-0.20138 0.0523,-0.44093 l 4e-5,-0.96472 -6.0581,0.20579 -6.05811,0.20579 0.0344,0.88091 c 0.0236,0.60497 0.0834,0.66619 0.25324,0.65579 0.0855,-0.005 2.75839,-0.12827 5.93973,-0.27342 z"
       id="path6535-2"
       sodipodi:nodetypes="ssscccsss" />
    <path
       style="display:inline;fill:#536c67;fill-opacity:0.992157;stroke:#ffffff;stroke-width:0;stroke-miterlimit:4;stroke-dasharray:none"
       d="m 300.40142,270.85749 c 0,-2.25219 -0.2781,-2.60686 -9.07083,-11.56852 -14.13467,-14.40624 -23.80641,-25.61363 -34.68087,-40.18743 -39.20241,-52.53845 -63.60453,-114.75776 -70.57137,-179.938994 -0.36871,-3.449629 -1.89752,-9.447045 -2.10383,-9.447045 -0.20632,0 0.0707,1.278184 0.61557,6.720943 7.03138,70.235426 26.65177,132.440036 73.15464,193.026666 8.08506,10.53369 19.38814,23.61404 21.38306,24.79247 0.86947,0.51361 0.11625,-0.0578 0.11625,0.33078 0,0.76419 15.2541,15.28003 18.01829,17.34013 2.48695,1.85346 3.13909,1.63139 3.13909,-1.069 z"
       id="path6518-6"
       sodipodi:nodetypes="sssssssssss" />
    <path
       style="display:inline;fill:#000000;fill-opacity:0.992157;stroke:#ffffff;stroke-width:0;stroke-miterlimit:4;stroke-dasharray:none"
       d="m 186.39162,42.154751 -0.0333,-0.459927 -1.21494,-0.003 z"
       id="path7182-4"
       sodipodi:nodetypes="cccc" />
    <path
       style="display:inline;fill:#000000;fill-opacity:0.992157;stroke:#ffffff;stroke-width:0;stroke-miterlimit:4;stroke-dasharray:none"
       d="m 186.75315,52.777441 1.01239,-0.19491 -0.0533,-0.294277 -0.0163,-0.19149 -0.70303,0.0962 -0.49968,0.0808 c 0,0 0.0144,0.498557 0.0435,0.552877 0.0276,0.0516 0.2164,-0.0491 0.2164,-0.0491 z"
       id="path7186-1"
       sodipodi:nodetypes="ccccccsc" />
    <path
       style="display:inline;fill:#000000;fill-opacity:0.992157;stroke:#ffffff;stroke-width:0;stroke-miterlimit:4;stroke-dasharray:none"
       d="m 188.13715,64.555682 c 0,0 0.52364,-0.128747 0.95205,-0.149507 0.48659,-0.0236 0.58622,-0.0124 0.57785,-0.0687 l -0.0317,-0.21313 -0.1054,-0.310077 -1.54544,0.0957 0.12073,0.429947 0.0319,0.215767 c 0,0 0,0 0,0 z"
       id="path7188-6"
       sodipodi:nodetypes="sssccccccs" />
    <path
       style="display:inline;fill:#000000;fill-opacity:0.992157;stroke:#ffffff;stroke-width:0;stroke-miterlimit:4;stroke-dasharray:none"
       d="m 191.31861,76.772433 0.79982,-0.0684 0.01,0.0165 -0.0588,0.0112 -0.16023,-0.612524 c -0.80059,0.0286 -1.14832,-0.003 -1.63601,0.0528 l 0.15258,0.629704 0.4383,-0.0371 z"
       id="path7190-7"
       sodipodi:nodetypes="ccsccccccc" />
    <path
       style="display:inline;fill:#000000;fill-opacity:0.992157;stroke:#ffffff;stroke-width:0.0125"
       d="m 193.26245,90.180688 c 0.0182,-0.0103 0.0658,-0.0473 0.1057,-0.0822 0.12984,-0.11336 0.49589,-0.198147 1.09319,-0.253207 0.39598,-0.0365 0.60067,-0.0683 0.68742,-0.10662 0.0403,-0.0178 0.0733,-0.0363 0.0733,-0.041 0,-0.031 -0.18965,-0.737167 -0.20693,-0.770477 -0.0573,-0.110557 -0.17463,-0.167527 -0.44858,-0.217897 -0.16809,-0.0309 -0.25641,-0.0361 -0.6178,-0.0364 -0.38451,-2.6e-4 -0.43324,0.003 -0.55274,0.0361 -0.24277,0.0675 -0.24674,0.0778 -0.25441,0.661737 -0.006,0.465647 0.0103,0.694174 0.0561,0.782854 0.0133,0.0258 0.0259,0.0467 0.028,0.0464 0.002,-2.7e-4 0.0186,-0.009 0.0368,-0.0193 z"
       id="path7192-7" />
    <path
       style="display:inline;fill:#000000;fill-opacity:0.992157;stroke:#ffffff;stroke-width:0.0125"
       d="m 196.80373,105.05571 c 0.0286,-0.007 0.13283,-0.0503 0.23151,-0.0968 0.37343,-0.17602 0.66653,-0.205 1.65148,-0.16327 0.36217,0.0153 0.66129,0.0251 0.66471,0.0217 0.0144,-0.0144 -0.0962,-0.46363 -0.14294,-0.5804 -0.083,-0.20736 -0.1523,-0.29779 -0.27144,-0.35441 -0.42407,-0.2015 -1.4747,-0.22224 -1.98656,-0.0392 -0.20436,0.0731 -0.38184,0.16576 -0.43639,0.22789 -0.0676,0.077 -0.0678,0.14283 -0.001,0.48213 0.0875,0.44585 0.14065,0.53765 0.29085,0.50236 z"
       id="path7194-4" />
    <path
       style="display:inline;fill:#000000;fill-opacity:0.992157;stroke:#ffffff;stroke-width:0.0125"
       d="m 201.1381,119.75553 c 0.25199,-0.27212 0.46827,-0.41514 0.80251,-0.53068 0.35636,-0.12318 0.60999,-0.15669 1.32536,-0.17507 0.51526,-0.0133 0.66238,-0.0273 0.686,-0.0655 0.005,-0.008 -0.0215,-0.0954 -0.0589,-0.19369 -0.0375,-0.0983 -0.10901,-0.29415 -0.159,-0.43512 -0.10785,-0.30415 -0.19979,-0.50711 -0.26973,-0.59541 -0.0796,-0.10057 -0.1997,-0.15042 -0.39252,-0.163 -0.2041,-0.0133 -0.61301,0.005 -0.86236,0.0392 -0.63251,0.0861 -1.18212,0.30882 -1.44689,0.5864 -0.13375,0.14022 -0.16599,0.22088 -0.15342,0.38384 0.0156,0.20275 0.0859,0.48331 0.22469,0.89667 0.0705,0.21007 0.13152,0.39199 0.13558,0.40427 0.005,0.0136 0.0702,-0.0455 0.1687,-0.15188 z"
       id="path7196-1" />
    <path
       style="display:inline;fill:#000000;fill-opacity:0.992157;stroke:#ffffff;stroke-width:0.0125"
       d="m 207.55763,138.7236 c 0.009,-0.0114 0.0362,-0.0641 0.0596,-0.11712 0.0562,-0.12738 0.12191,-0.2078 0.2458,-0.30094 0.27399,-0.20596 0.75167,-0.35824 1.3518,-0.43094 0.12428,-0.015 0.47947,-0.031 0.89066,-0.0401 0.69579,-0.0153 0.87874,-0.026 0.87874,-0.0512 0,-0.0412 -0.31231,-0.78171 -0.37498,-0.88903 -0.14563,-0.24942 -0.28701,-0.31367 -0.93507,-0.42496 -0.3058,-0.0525 -0.3865,-0.0604 -0.61644,-0.0602 -0.5372,5.3e-4 -1.11713,0.13021 -1.57097,0.35147 -0.11663,0.0569 -0.23177,0.13334 -0.39073,0.25953 l -0.22536,0.1789 0.0302,0.0822 c 0.0166,0.0452 0.0982,0.26827 0.18136,0.49565 0.19191,0.52484 0.28324,0.74246 0.36418,0.86769 0.0666,0.10305 0.0823,0.11417 0.11121,0.079 z"
       id="path7198-5" />
    <path
       style="display:inline;fill:#000000;fill-opacity:0.992157;stroke:#ffffff;stroke-width:0.0125"
       d="m 226.6988,180.84648 c 0.0771,-0.0796 0.22632,-0.24516 0.33155,-0.36794 0.60197,-0.70239 1.07505,-0.96357 1.932,-1.06661 0.15847,-0.0191 0.47032,-0.0309 1.07487,-0.0409 0.4684,-0.008 0.8683,-0.0204 0.88868,-0.0282 0.036,-0.0138 0.0326,-0.0222 -0.12124,-0.30328 -0.42589,-0.7778 -0.55114,-0.94915 -0.77628,-1.06191 -0.16198,-0.0811 -0.50163,-0.17237 -0.81799,-0.21972 -1.15466,-0.17285 -2.30914,0.25106 -2.92595,1.07438 -0.10917,0.14572 -0.50112,0.79303 -0.50211,0.82925 -5.3e-4,0.0224 0.40713,0.80156 0.52163,0.99678 0.11411,0.19454 0.21183,0.33283 0.23519,0.33283 0.0107,0 0.0825,-0.0651 0.15965,-0.14469 z"
       id="path7200-2" />
    <path
       style="display:inline;fill:#000000;fill-opacity:0.992157;stroke:#ffffff;stroke-width:0.0125"
       d="m 240.62911,204.87878 c 0.0181,-0.0387 0.0487,-0.12306 0.0679,-0.18757 0.0671,-0.22538 0.34412,-0.6072 0.72679,-1.00159 0.45403,-0.46794 0.80247,-0.71939 1.23296,-0.88978 0.47235,-0.18695 1.03884,-0.22646 2.03578,-0.14195 0.27285,0.0231 0.50488,0.0421 0.51562,0.0421 0.0184,8e-5 -0.15935,-0.31858 -0.29971,-0.53736 -0.31058,-0.48408 -0.65137,-0.772 -1.10191,-0.93094 -0.45649,-0.16104 -1.26404,-0.25355 -1.77637,-0.20348 -1.05582,0.10316 -1.80838,0.64451 -2.32293,1.67097 -0.11094,0.22131 -0.19888,0.46345 -0.19888,0.5476 0,0.0947 0.24872,0.52848 0.62375,1.08781 0.19067,0.28438 0.43341,0.61444 0.45188,0.61444 0.007,0 0.027,-0.0316 0.0451,-0.0703 z"
       id="path7202-6" />
    <path
       style="display:inline;fill:#000000;fill-opacity:0.992157;stroke:#ffffff;stroke-width:0.0125"
       d="m 254.86844,225.13531 c 0.0516,-0.15689 0.12257,-0.34479 0.15758,-0.41755 0.1416,-0.29427 0.41594,-0.65482 0.76097,-1.00013 0.56252,-0.56299 1.03087,-0.8323 1.64351,-0.94506 0.14489,-0.0267 0.27601,-0.0354 0.62182,-0.0413 0.38562,-0.007 0.50569,-0.002 1.00045,0.0407 0.30923,0.0265 0.56424,0.0465 0.56669,0.0444 0.0114,-0.01 -0.6366,-0.8434 -0.75119,-0.9666 -0.43471,-0.46737 -0.82913,-0.61461 -1.89082,-0.70586 -0.38433,-0.033 -0.69691,-0.0171 -1.02532,0.0522 -0.98399,0.20776 -1.72511,0.88788 -2.15553,1.97813 -0.20289,0.5139 -0.19398,0.62525 0.0838,1.04737 0.22856,0.34728 0.85416,1.19889 0.8807,1.19889 0.007,0 0.0557,-0.12836 0.1073,-0.28525 z"
       id="path7204-2" />
    <path
       style="display:inline;fill:#000000;fill-opacity:0.992157;stroke:#ffffff;stroke-width:0.013;stroke-miterlimit:4;stroke-dasharray:none"
       d="m 272.29878,246.68698 c 0.0134,-0.025 0.10491,-0.22034 0.20324,-0.43405 0.277,-0.60201 0.35684,-0.74098 0.58422,-1.01692 0.12359,-0.14996 0.41512,-0.42727 0.58409,-0.55556 0.16844,-0.12791 0.45565,-0.30226 0.66267,-0.40227 0.58528,-0.28278 1.19236,-0.42029 1.87537,-0.42481 0.4653,-0.003 0.45874,0.0292 0.0691,-0.33985 -0.27061,-0.2563 -0.36809,-0.33687 -0.53188,-0.43964 -0.85305,-0.53522 -1.96915,-0.82981 -2.58333,-0.68187 -0.38524,0.0928 -0.81505,0.40602 -1.54439,1.12547 -0.36838,0.36339 -0.51121,0.52175 -0.65145,0.72229 -0.31394,0.44893 -0.25242,0.73922 0.29285,1.38192 0.1615,0.19038 0.9969,1.11075 1.00818,1.11075 0.004,0 0.0179,-0.0205 0.0314,-0.0455 z"
       id="path7206-5" />
    <path
       style="display:inline;fill:#000000;fill-opacity:0.992157;stroke:#ffffff;stroke-width:0;stroke-miterlimit:4;stroke-dasharray:none"
       d="m 216.80767,158.27928 c 0.56944,-0.54585 1.31275,-0.74706 2.58525,-0.6998 0.49257,0.0183 -0.2478,-0.81637 -0.75833,-1.54714 0,0 -0.2428,-0.002 -1.09715,0.11233 -0.58655,0.0787 -1.83943,0.91602 -2.13743,1.21402 -0.49708,0.49708 0.0189,0.0761 0.36956,0.78098 l 0.3822,0.76834 z"
       id="path7208-8"
       sodipodi:nodetypes="sssssscs" />
    <path
       style="display:inline;fill:#000000;fill-opacity:0.992157;stroke:#ffffff;stroke-width:0;stroke-miterlimit:4;stroke-dasharray:none"
       d="m 185.14336,41.692124 0.0333,0.459927 1.21494,0.003 z"
       id="path7182-5-1"
       sodipodi:nodetypes="cccc" />
    <path
       style="display:inline;fill:#536c67;fill-opacity:0.992157;stroke:#ffffff;stroke-width:0;stroke-miterlimit:4;stroke-dasharray:none"
       d="m 177.33576,195.0247 c 1.23153,-0.79655 2.33213,-5.59734 3.37713,-14.73087 0.11256,-0.9842 0.13462,-3.61152 0.13462,-3.61152 l 0.063,-1.78224 0.0953,-0.19011 v 0 l -0.0953,0.19011 0.0388,-0.65971 c 0.0109,-0.17689 -0.34665,1.68306 -0.40993,2.38558 -0.70562,7.83593 -1.85481,14.66968 -2.84309,16.90666 -0.41253,0.93379 -0.75346,1.09439 -1.14229,0.53812 -1.75176,-2.50624 -3.5961,-17.11072 -5.16826,-40.92502 -0.0832,-1.26042 -0.16335,-2.41847 -0.17811,-2.57344 l -0.0268,-0.28176 h -0.28001 -0.28003 l 0.0257,0.24419 c 0.0141,0.1343 0.0935,1.27545 0.17611,2.53586 0.22251,3.39056 0.72453,10.17151 0.98462,13.29922 1.24235,14.94017 2.55049,24.15992 3.88052,27.34979 0.50427,1.20943 1.08501,1.66933 1.64807,1.30514 z"
       id="path7414-6"
       sodipodi:nodetypes="sscccccsssssscccssssss" />
  </g>
  <g
     inkscape:groupmode="layer"
     id="layer31"
     inkscape:label="tengah">
    <path
       style="fill:none;stroke:#000000;stroke-width:0.3;stroke-linecap:butt;stroke-linejoin:miter;stroke-miterlimit:4;stroke-dasharray:7.2, 7.2;stroke-dashoffset:0;stroke-opacity:1"
       d="m 165.44899,291.74765 v -100.778"
       id="path8083-9" />
    <ellipse
       style="fill:#1c241f;fill-opacity:0.992157;stroke:#ffffff;stroke-width:0;stroke-miterlimit:4;stroke-dasharray:none;stroke-dashoffset:0"
       id="path8122-9-7"
       cx="160.82225"
       cy="224.59612"
       rx="0.57937729"
       ry="2.7081823" />
    <rect
       style="fill:#0088aa;fill-opacity:0.992157;stroke:#ffffff;stroke-width:0;stroke-miterlimit:4;stroke-dasharray:none;stroke-dashoffset:0"
       id="rect8103-5-0"
       width="12.790773"
       height="11.211449"
       x="148.55898"
       y="209.33638"
       ry="3.836592" />
    <ellipse
       style="fill:#1c241f;fill-opacity:0.992157;stroke:#ffffff;stroke-width:0;stroke-miterlimit:4;stroke-dasharray:none;stroke-dashoffset:0"
       id="path8122-5"
       cx="148.98659"
       cy="225.04756"
       rx="0.57937729"
       ry="2.7081823" />
    <rect
       style="fill:#0088aa;fill-opacity:0.992157;stroke:#ffffff;stroke-width:0;stroke-miterlimit:4;stroke-dasharray:none;stroke-dashoffset:0"
       id="rect8103-7-2"
       width="15.919055"
       height="8.6525364"
       x="147.08609"
       y="215.95731"
       ry="1.5797731" />
    <rect
       style="fill:#dbe3de;fill-opacity:0.992157;stroke:#ffffff;stroke-width:0;stroke-miterlimit:4;stroke-dasharray:none;stroke-dashoffset:0"
       id="rect8154-7"
       width="7.5319057"
       height="3.836592"
       x="150.97301"
       y="212.63531" />
  </g>
</svg>
